<?xml version="1.0" encoding="UTF-8"?>
<!-- Do not edit this file with editors other than draw.io -->
<!DOCTYPE svg PUBLIC "-//W3C//DTD SVG 1.1//EN" "http://www.w3.org/Graphics/SVG/1.1/DTD/svg11.dtd">
<svg xmlns="http://www.w3.org/2000/svg" xmlns:xlink="http://www.w3.org/1999/xlink" version="1.1" width="411px" height="100px" viewBox="-0.5 -0.5 411 100" content="&lt;mxfile host=&quot;Electron&quot; modified=&quot;2024-01-31T07:01:20.297Z&quot; agent=&quot;Mozilla/5.0 (Macintosh; Intel Mac OS X 10_15_7) AppleWebKit/537.36 (KHTML, like Gecko) draw.io/22.1.21 Chrome/120.0.6099.109 Electron/28.1.0 Safari/537.36&quot; version=&quot;22.1.21&quot; etag=&quot;SGR-XY-WyTPAkM00Bf3W&quot; type=&quot;device&quot;&gt;&lt;diagram name=&quot;Page-1&quot; id=&quot;RZrnEVTxqyFTZzxW6cQA&quot;&gt;7ZrbjpswEIafBqm9aATmmMsNe+hFW1VNpXYv3eCAW4Mjx9kkffqaYHOIsykioEQtK22EB9uY/5vxYYRhh+nuicFV8pFGiBjAjHaGfW8A4Aau+M0N+8JgB3ZhiBmOCpNVGeb4N5JGU1o3OELrRkVOKeF41TQuaJahBW/YIGN026y2pKT51BWMkWaYLyDRrd9wxJPCGgC/sr9HOE7Uky1vWtxJoaosu1gnMKLbwnR4OfvBsENGKS+u0l2ISK6d0qVQ4PGVu+XAGMp4mwagaPACyUa+2wfE5dD4Xr0vRzvR2yzhKREGS1yuOaO/UEgJZcKS0UzUnC0xIUcmSHCcieJCjAcJ++wFMY6FknfyRoqjKH/MbJtgjuYruMifuRVuI2yMbrII5UM18+5pxudyUECWH2GKSe5FX3EqPAKYn9BW/H6hKcxUk8J9LEeW1QgNYHvi71FIM5MqiLGh3atKWiUf4deIpoizvagiGwAHTKRb75W3SvHNbeUknjQlNf9Q1aB0y7jsvCInLiS80yBtDeRmPXLswjG4KkdH4xjTkWMHjjawJv4VQboatUq9nBhlPKExzSD5QOlKGn8izvdSILjhtAkZ7TD/LsXPr59r1/e7emGvCpkY9aGJ8GlZfK7fq5odSqpdMXYUHS2Da7phC2kK5LoLWYx4w3dbMGKIQI5fmr2fUvvQ9I4xuK9VWFGc8XWt58+5oYbe10PYMo/gFZ1WKMvRtaLrDUC3I6vSKybAbe0Y3QDbtwLY0wGb/QL2bxHw0HzBzfKdTvvFG2jLLE8QQ+NK22WlbbdjcgZaaKcDRqrViNMqbP8aqf7QoRrcSKg69uBrrTr1j4fUi0PVc5qzqq+HqT1QmFqWRnE8oXaCOL0iRD1fNB5PO0G0gHs9inqyaNz9dAbp2ZNrstQTRlG+48HZf0MzDM389NcPTddslTVyXLXr6R2oqwF9QgkacXba73gtaQ7E8lyayOw3i1De6zNNRAV6zPOS1/Kooty3flZRG/g+DyutEZxL5FyOAHRk0AWBcwmC9qHTP4LgFqOg3xP6Sc0HSKe11vxcVuRKmlsdfN66RP8B0tVt9Qd6zmKL2biGd9mSqVX03Ao+1PYa6FmLOSLLd5BzMXxMb3Vb1oPuYGoeJ+EdXXjLcsotVl18uw/x9WzD3b+vuw8mHriu7np+wHDDN+KfwCwWSrhh/iET5oY/+0GXhn8vLPnLuyFTFd7eKKBTc91AE5dCcXbecnqZt0Sx+masSLFXH97ZD38A&lt;/diagram&gt;&lt;/mxfile&gt;"><defs><style xmlns="http://www.w3.org/1999/xhtml" id="MJX-SVG-styles">&#xa;mjx-container[jax="SVG"] {&#xa;  direction: ltr;&#xa;}&#xa;&#xa;mjx-container[jax="SVG"] &gt; svg {&#xa;  overflow: visible;&#xa;  min-height: 1px;&#xa;  min-width: 1px;&#xa;}&#xa;&#xa;mjx-container[jax="SVG"] &gt; svg a {&#xa;  fill: blue;&#xa;  stroke: blue;&#xa;}&#xa;&#xa;mjx-container[jax="SVG"][display="true"] {&#xa;  display: block;&#xa;  text-align: center;&#xa;  margin: 1em 0;&#xa;}&#xa;&#xa;mjx-container[jax="SVG"][display="true"][width="full"] {&#xa;  display: flex;&#xa;}&#xa;&#xa;mjx-container[jax="SVG"][justify="left"] {&#xa;  text-align: left;&#xa;}&#xa;&#xa;mjx-container[jax="SVG"][justify="right"] {&#xa;  text-align: right;&#xa;}&#xa;&#xa;g[data-mml-node="merror"] &gt; g {&#xa;  fill: red;&#xa;  stroke: red;&#xa;}&#xa;&#xa;g[data-mml-node="merror"] &gt; rect[data-background] {&#xa;  fill: yellow;&#xa;  stroke: none;&#xa;}&#xa;&#xa;g[data-mml-node="mtable"] &gt; line[data-line], svg[data-table] &gt; g &gt; line[data-line] {&#xa;  stroke-width: 70px;&#xa;  fill: none;&#xa;}&#xa;&#xa;g[data-mml-node="mtable"] &gt; rect[data-frame], svg[data-table] &gt; g &gt; rect[data-frame] {&#xa;  stroke-width: 70px;&#xa;  fill: none;&#xa;}&#xa;&#xa;g[data-mml-node="mtable"] &gt; .mjx-dashed, svg[data-table] &gt; g &gt; .mjx-dashed {&#xa;  stroke-dasharray: 140;&#xa;}&#xa;&#xa;g[data-mml-node="mtable"] &gt; .mjx-dotted, svg[data-table] &gt; g &gt; .mjx-dotted {&#xa;  stroke-linecap: round;&#xa;  stroke-dasharray: 0,140;&#xa;}&#xa;&#xa;g[data-mml-node="mtable"] &gt; g &gt; svg {&#xa;  overflow: visible;&#xa;}&#xa;&#xa;[jax="SVG"] mjx-tool {&#xa;  display: inline-block;&#xa;  position: relative;&#xa;  width: 0;&#xa;  height: 0;&#xa;}&#xa;&#xa;[jax="SVG"] mjx-tool &gt; mjx-tip {&#xa;  position: absolute;&#xa;  top: 0;&#xa;  left: 0;&#xa;}&#xa;&#xa;mjx-tool &gt; mjx-tip {&#xa;  display: inline-block;&#xa;  padding: .2em;&#xa;  border: 1px solid #888;&#xa;  font-size: 70%;&#xa;  background-color: #F8F8F8;&#xa;  color: black;&#xa;  box-shadow: 2px 2px 5px #AAAAAA;&#xa;}&#xa;&#xa;g[data-mml-node="maction"][data-toggle] {&#xa;  cursor: pointer;&#xa;}&#xa;&#xa;mjx-status {&#xa;  display: block;&#xa;  position: fixed;&#xa;  left: 1em;&#xa;  bottom: 1em;&#xa;  min-width: 25%;&#xa;  padding: .2em .4em;&#xa;  border: 1px solid #888;&#xa;  font-size: 90%;&#xa;  background-color: #F8F8F8;&#xa;  color: black;&#xa;}&#xa;&#xa;foreignObject[data-mjx-xml] {&#xa;  font-family: initial;&#xa;  line-height: normal;&#xa;  overflow: visible;&#xa;}&#xa;&#xa;mjx-container[jax="SVG"] path[data-c], mjx-container[jax="SVG"] use[data-c] {&#xa;  stroke-width: 3;&#xa;}&#xa;</style></defs><g><rect x="212.5" y="80" width="60" height="20" fill="none" stroke="none" pointer-events="all"/><g transform="translate(-0.5 -0.5)"><switch><foreignObject pointer-events="none" width="100%" height="100%" requiredFeatures="http://www.w3.org/TR/SVG11/feature#Extensibility" style="overflow: visible; text-align: left;"><div xmlns="http://www.w3.org/1999/xhtml" style="display: flex; align-items: unsafe center; justify-content: unsafe center; width: 58px; height: 1px; padding-top: 90px; margin-left: 214px;"><div data-drawio-colors="color: #6666FF; " style="box-sizing: border-box; font-size: 0px; text-align: center;"><div style="display: inline-block; font-size: 14px; font-family: &quot;Times New Roman&quot;; color: rgb(102, 102, 255); line-height: 1.2; pointer-events: all; font-style: italic; white-space: normal; overflow-wrap: normal;">Let</div></div></div></foreignObject><text x="243" y="94" fill="#6666FF" font-family="Times New Roman" font-size="14px" text-anchor="middle" font-style="italic">Let</text></switch></g><rect x="252.5" y="80" width="60" height="20" fill="none" stroke="none" pointer-events="all"/><g transform="translate(-0.5 -0.5)"><switch><foreignObject pointer-events="none" width="100%" height="100%" requiredFeatures="http://www.w3.org/TR/SVG11/feature#Extensibility" style="overflow: visible; text-align: left;"><div xmlns="http://www.w3.org/1999/xhtml" style="display: flex; align-items: unsafe center; justify-content: unsafe center; width: 58px; height: 1px; padding-top: 90px; margin-left: 254px;"><div data-drawio-colors="color: #6666FF; " style="box-sizing: border-box; font-size: 0px; text-align: center;"><div style="display: inline-block; font-size: 14px; font-family: &quot;Times New Roman&quot;; color: rgb(102, 102, 255); line-height: 1.2; pointer-events: all; font-style: italic; white-space: normal; overflow-wrap: normal;">us</div></div></div></foreignObject><text x="283" y="94" fill="#6666FF" font-family="Times New Roman" font-size="14px" text-anchor="middle" font-style="italic">us</text></switch></g><rect x="291.75" y="80" width="60" height="20" fill="none" stroke="none" pointer-events="all"/><g transform="translate(-0.5 -0.5)"><switch><foreignObject pointer-events="none" width="100%" height="100%" requiredFeatures="http://www.w3.org/TR/SVG11/feature#Extensibility" style="overflow: visible; text-align: left;"><div xmlns="http://www.w3.org/1999/xhtml" style="display: flex; align-items: unsafe center; justify-content: unsafe center; width: 58px; height: 1px; padding-top: 90px; margin-left: 293px;"><div data-drawio-colors="color: #6666FF; " style="box-sizing: border-box; font-size: 0px; text-align: center;"><div style="display: inline-block; font-size: 14px; font-family: &quot;Times New Roman&quot;; color: rgb(102, 102, 255); line-height: 1.2; pointer-events: all; font-style: italic; white-space: normal; overflow-wrap: normal;">go</div></div></div></foreignObject><text x="322" y="94" fill="#6666FF" font-family="Times New Roman" font-size="14px" text-anchor="middle" font-style="italic">go</text></switch></g><path d="M 352.5 80 L 347.5 75 Q 342.5 70 334.99 73.62 L 327.49 77.24" fill="none" stroke="rgb(0, 0, 0)" stroke-miterlimit="10" pointer-events="stroke"/><path d="M 322.76 79.51 L 327.54 73.32 L 327.49 77.24 L 330.58 79.63 Z" fill="rgb(0, 0, 0)" stroke="rgb(0, 0, 0)" stroke-miterlimit="10" pointer-events="all"/><path d="M 362.5 80 L 340.82 65.55 Q 332.5 60 323.22 63.71 L 288.41 77.63" fill="none" stroke="rgb(0, 0, 0)" stroke-miterlimit="10" pointer-events="stroke"/><path d="M 283.54 79.58 L 288.74 73.74 L 288.41 77.63 L 291.34 80.23 Z" fill="rgb(0, 0, 0)" stroke="rgb(0, 0, 0)" stroke-miterlimit="10" pointer-events="all"/><path d="M 372.5 80 L 340.5 56 Q 332.5 50 323.01 53.16 L 248.54 77.99" fill="none" stroke="rgb(0, 0, 0)" stroke-miterlimit="10" pointer-events="stroke"/><path d="M 243.56 79.65 L 249.09 74.11 L 248.54 77.99 L 251.31 80.75 Z" fill="rgb(0, 0, 0)" stroke="rgb(0, 0, 0)" stroke-miterlimit="10" pointer-events="all"/><rect x="352.5" y="80" width="40" height="20" fill="none" stroke="none" pointer-events="all"/><g transform="translate(-0.5 -0.5)"><switch><foreignObject pointer-events="none" width="100%" height="100%" requiredFeatures="http://www.w3.org/TR/SVG11/feature#Extensibility" style="overflow: visible; text-align: left;"><div xmlns="http://www.w3.org/1999/xhtml" style="display: flex; align-items: unsafe center; justify-content: unsafe center; width: 38px; height: 1px; padding-top: 90px; margin-left: 354px;"><div data-drawio-colors="color: #6666FF; " style="box-sizing: border-box; font-size: 0px; text-align: center;"><div style="display: inline-block; font-size: 14px; font-family: &quot;Times New Roman&quot;; color: rgb(102, 102, 255); line-height: 1.2; pointer-events: all; font-style: italic; white-space: normal; overflow-wrap: normal;">there</div></div></div></foreignObject><text x="373" y="94" fill="#6666FF" font-family="Times New Roman" font-size="14px" text-anchor="middle" font-style="italic">there</text></switch></g><path d="M 382.5 80 L 393.56 74.47 Q 402.5 70 398.92 77.15 L 395.35 84.3" fill="none" stroke="rgb(0, 0, 0)" stroke-miterlimit="10" pointer-events="stroke"/><path d="M 393 89 L 393 81.17 L 395.35 84.3 L 399.26 84.3 Z" fill="rgb(0, 0, 0)" stroke="rgb(0, 0, 0)" stroke-miterlimit="10" pointer-events="all"/><rect x="34" y="30" width="30" height="20" fill="none" stroke="none" pointer-events="all"/><g transform="translate(-0.5 -0.5)"><switch><foreignObject pointer-events="none" width="100%" height="100%" requiredFeatures="http://www.w3.org/TR/SVG11/feature#Extensibility" style="overflow: visible; text-align: left;"><div xmlns="http://www.w3.org/1999/xhtml" style="display: flex; align-items: unsafe center; justify-content: unsafe center; width: 28px; height: 1px; padding-top: 40px; margin-left: 35px;"><div data-drawio-colors="color: #6666FF; " style="box-sizing: border-box; font-size: 0px; text-align: center;"><div style="display: inline-block; font-size: 14px; font-family: &quot;Times New Roman&quot;; color: rgb(102, 102, 255); line-height: 1.2; pointer-events: all; font-style: italic; white-space: normal; overflow-wrap: normal;">Let</div></div></div></foreignObject><text x="49" y="44" fill="#6666FF" font-family="Times New Roman" font-size="14px" text-anchor="middle" font-style="italic">Let</text></switch></g><rect x="64" y="30" width="30" height="20" fill="none" stroke="none" pointer-events="all"/><g transform="translate(-0.5 -0.5)"><switch><foreignObject pointer-events="none" width="100%" height="100%" requiredFeatures="http://www.w3.org/TR/SVG11/feature#Extensibility" style="overflow: visible; text-align: left;"><div xmlns="http://www.w3.org/1999/xhtml" style="display: flex; align-items: unsafe center; justify-content: unsafe center; width: 28px; height: 1px; padding-top: 40px; margin-left: 65px;"><div data-drawio-colors="color: #6666FF; " style="box-sizing: border-box; font-size: 0px; text-align: center;"><div style="display: inline-block; font-size: 14px; font-family: &quot;Times New Roman&quot;; color: rgb(102, 102, 255); line-height: 1.2; pointer-events: all; font-style: italic; white-space: normal; overflow-wrap: normal;">us</div></div></div></foreignObject><text x="79" y="44" fill="#6666FF" font-family="Times New Roman" font-size="14px" text-anchor="middle" font-style="italic">us</text></switch></g><rect x="95" y="30" width="30" height="20" fill="none" stroke="none" pointer-events="all"/><g transform="translate(-0.5 -0.5)"><switch><foreignObject pointer-events="none" width="100%" height="100%" requiredFeatures="http://www.w3.org/TR/SVG11/feature#Extensibility" style="overflow: visible; text-align: left;"><div xmlns="http://www.w3.org/1999/xhtml" style="display: flex; align-items: unsafe center; justify-content: unsafe center; width: 28px; height: 1px; padding-top: 40px; margin-left: 96px;"><div data-drawio-colors="color: #6666FF; " style="box-sizing: border-box; font-size: 0px; text-align: center;"><div style="display: inline-block; font-size: 14px; font-family: &quot;Times New Roman&quot;; color: rgb(102, 102, 255); line-height: 1.2; pointer-events: all; font-style: italic; white-space: normal; overflow-wrap: normal;">go</div></div></div></foreignObject><text x="110" y="44" fill="#6666FF" font-family="Times New Roman" font-size="14px" text-anchor="middle" font-style="italic">go</text></switch></g><rect x="133.25" y="30" width="30" height="20" fill="none" stroke="none" pointer-events="all"/><g transform="translate(-0.5 -0.5)"><switch><foreignObject pointer-events="none" width="100%" height="100%" requiredFeatures="http://www.w3.org/TR/SVG11/feature#Extensibility" style="overflow: visible; text-align: left;"><div xmlns="http://www.w3.org/1999/xhtml" style="display: flex; align-items: unsafe center; justify-content: unsafe center; width: 28px; height: 1px; padding-top: 40px; margin-left: 134px;"><div data-drawio-colors="color: #6666FF; " style="box-sizing: border-box; font-size: 0px; text-align: center;"><div style="display: inline-block; font-size: 14px; font-family: &quot;Times New Roman&quot;; color: rgb(102, 102, 255); line-height: 1.2; pointer-events: all; font-style: italic; white-space: normal; overflow-wrap: normal;">there</div></div></div></foreignObject><text x="148" y="44" fill="#6666FF" font-family="Times New Roman" font-size="14px" text-anchor="middle" font-style="italic">there</text></switch></g><rect x="120.75" y="80" width="45.5" height="20" fill="none" stroke="none" pointer-events="all"/><g transform="translate(-0.5 -0.5)"><switch><foreignObject pointer-events="none" width="100%" height="100%" requiredFeatures="http://www.w3.org/TR/SVG11/feature#Extensibility" style="overflow: visible; text-align: left;"><div xmlns="http://www.w3.org/1999/xhtml" style="display: flex; align-items: unsafe center; justify-content: unsafe center; width: 43px; height: 1px; padding-top: 90px; margin-left: 122px;"><div data-drawio-colors="color: #CC0000; " style="box-sizing: border-box; font-size: 0px; text-align: center;"><div style="display: inline-block; font-size: 14px; font-family: &quot;Times New Roman&quot;; color: rgb(204, 0, 0); line-height: 1.2; pointer-events: all; font-style: italic; white-space: normal; overflow-wrap: normal;">dorthin</div></div></div></foreignObject><text x="144" y="94" fill="#CC0000" font-family="Times New Roman" font-size="14px" text-anchor="middle" font-style="italic">dorthin</text></switch></g><rect x="36.75" y="80" width="45" height="20" fill="none" stroke="none" pointer-events="all"/><g transform="translate(-0.5 -0.5)"><switch><foreignObject pointer-events="none" width="100%" height="100%" requiredFeatures="http://www.w3.org/TR/SVG11/feature#Extensibility" style="overflow: visible; text-align: left;"><div xmlns="http://www.w3.org/1999/xhtml" style="display: flex; align-items: unsafe center; justify-content: unsafe center; width: 43px; height: 1px; padding-top: 90px; margin-left: 38px;"><div data-drawio-colors="color: #CC0000; " style="box-sizing: border-box; font-size: 0px; text-align: center;"><div style="display: inline-block; font-size: 14px; font-family: &quot;Times New Roman&quot;; color: rgb(204, 0, 0); line-height: 1.2; pointer-events: all; font-style: italic; white-space: normal; overflow-wrap: normal;">Gehen</div></div></div></foreignObject><text x="59" y="94" fill="#CC0000" font-family="Times New Roman" font-size="14px" text-anchor="middle" font-style="italic">Gehen</text></switch></g><path d="M 48 80 L 48.79 56.36" fill="none" stroke="rgb(0, 0, 0)" stroke-opacity="0.6" stroke-miterlimit="10" pointer-events="stroke"/><path d="M 48.96 51.12 L 52.23 58.23 L 48.79 56.36 L 45.23 58 Z" fill-opacity="0.6" fill="rgb(0, 0, 0)" stroke="rgb(0, 0, 0)" stroke-opacity="0.6" stroke-miterlimit="10" pointer-events="all"/><path d="M 59.25 80 L 69.09 55.9" fill="none" stroke="rgb(0, 0, 0)" stroke-opacity="0.4" stroke-miterlimit="10" pointer-events="stroke"/><path d="M 71.08 51.04 L 71.67 58.84 L 69.09 55.9 L 65.19 56.19 Z" fill-opacity="0.4" fill="rgb(0, 0, 0)" stroke="rgb(0, 0, 0)" stroke-opacity="0.4" stroke-miterlimit="10" pointer-events="all"/><path d="M 70.5 80 L 104.93 53.85" fill="none" stroke="rgb(0, 0, 0)" stroke-miterlimit="10" pointer-events="stroke"/><path d="M 109.11 50.68 L 105.65 57.7 L 104.93 53.85 L 101.42 52.12 Z" fill="rgb(0, 0, 0)" stroke="rgb(0, 0, 0)" stroke-miterlimit="10" pointer-events="all"/><path d="M 81.75 80 L 142.45 52.62" fill="none" stroke="rgb(0, 0, 0)" stroke-opacity="0.1" stroke-miterlimit="10" pointer-events="stroke"/><path d="M 147.23 50.46 L 142.29 56.53 L 142.45 52.62 L 139.41 50.15 Z" fill-opacity="0.1" fill="rgb(0, 0, 0)" stroke="rgb(0, 0, 0)" stroke-opacity="0.1" stroke-miterlimit="10" pointer-events="all"/><rect x="86" y="80" width="30" height="20" fill="none" stroke="none" pointer-events="all"/><g transform="translate(-0.5 -0.5)"><switch><foreignObject pointer-events="none" width="100%" height="100%" requiredFeatures="http://www.w3.org/TR/SVG11/feature#Extensibility" style="overflow: visible; text-align: left;"><div xmlns="http://www.w3.org/1999/xhtml" style="display: flex; align-items: unsafe center; justify-content: unsafe center; width: 28px; height: 1px; padding-top: 90px; margin-left: 87px;"><div data-drawio-colors="color: #CC0000; " style="box-sizing: border-box; font-size: 0px; text-align: center;"><div style="display: inline-block; font-size: 14px; font-family: &quot;Times New Roman&quot;; color: rgb(204, 0, 0); line-height: 1.2; pointer-events: all; font-style: italic; white-space: normal; overflow-wrap: normal;">wir</div></div></div></foreignObject><text x="101" y="94" fill="#CC0000" font-family="Times New Roman" font-size="14px" text-anchor="middle" font-style="italic">wir</text></switch></g><rect x="260.5" y="0" width="114.75" height="30" fill="none" stroke="none" pointer-events="all"/><g transform="translate(-0.5 -0.5)"><switch><foreignObject pointer-events="none" width="100%" height="100%" requiredFeatures="http://www.w3.org/TR/SVG11/feature#Extensibility" style="overflow: visible; text-align: left;"><div xmlns="http://www.w3.org/1999/xhtml" style="display: flex; align-items: unsafe center; justify-content: unsafe center; width: 113px; height: 1px; padding-top: 15px; margin-left: 262px;"><div data-drawio-colors="color: rgb(0, 0, 0); " style="box-sizing: border-box; font-size: 0px; text-align: center;"><div style="display: inline-block; font-size: 12px; font-family: Helvetica; color: rgb(0, 0, 0); line-height: 1.2; pointer-events: all; white-space: normal; overflow-wrap: normal;">Self-attention</div></div></div></foreignObject><text x="318" y="19" fill="rgb(0, 0, 0)" font-family="Helvetica" font-size="12px" text-anchor="middle">Self-attention</text></switch></g><rect x="42.62" y="0" width="114.75" height="30" fill="none" stroke="none" pointer-events="all"/><g transform="translate(-0.5 -0.5)"><switch><foreignObject pointer-events="none" width="100%" height="100%" requiredFeatures="http://www.w3.org/TR/SVG11/feature#Extensibility" style="overflow: visible; text-align: left;"><div xmlns="http://www.w3.org/1999/xhtml" style="display: flex; align-items: unsafe center; justify-content: unsafe center; width: 113px; height: 1px; padding-top: 15px; margin-left: 44px;"><div data-drawio-colors="color: rgb(0, 0, 0); " style="box-sizing: border-box; font-size: 0px; text-align: center;"><div style="display: inline-block; font-size: 12px; font-family: Helvetica; color: rgb(0, 0, 0); line-height: 1.2; pointer-events: all; white-space: normal; overflow-wrap: normal;">Attention</div></div></div></foreignObject><text x="100" y="19" fill="rgb(0, 0, 0)" font-family="Helvetica" font-size="12px" text-anchor="middle">Attention</text></switch></g><rect x="0" y="80" width="34" height="20" fill="none" stroke="none" pointer-events="all"/><g transform="translate(-0.5 -0.5)"><switch><foreignObject pointer-events="none" width="100%" height="100%" requiredFeatures="http://www.w3.org/TR/SVG11/feature#Extensibility" style="overflow: visible; text-align: left;"><div xmlns="http://www.w3.org/1999/xhtml" style="display: flex; align-items: unsafe center; justify-content: unsafe center; width: 32px; height: 1px; padding-top: 90px; margin-left: 1px;"><div data-drawio-colors="color: #CC0000; " style="box-sizing: border-box; font-size: 0px; text-align: center;"><div style="display: inline-block; font-size: 12px; font-family: Helvetica; color: rgb(204, 0, 0); line-height: 1.2; pointer-events: all; font-style: italic; white-space: normal; overflow-wrap: normal;"><mjx-container class="MathJax" jax="SVG"><svg xmlns="http://www.w3.org/2000/svg" width="5.281ex" height="2.262ex" role="img" focusable="false" viewBox="0 -750 2334 1000" xmlns:xlink="http://www.w3.org/1999/xlink" style="vertical-align: -0.566ex;"><defs><path id="MJX-432-TEX-N-27E8" d="M333 -232Q332 -239 327 -244T313 -250Q303 -250 296 -240Q293 -233 202 6T110 250T201 494T296 740Q299 745 306 749L309 750Q312 750 313 750Q331 750 333 732Q333 727 243 489Q152 252 152 250T243 11Q333 -227 333 -232Z"/><path id="MJX-432-TEX-MI-62" d="M158 683Q163 683 223 688T300 694Q312 694 312 685T279 544Q243 405 243 403L256 412Q268 422 292 432T338 442Q395 442 431 398T467 284Q467 175 393 82T229 -11Q175 -11 142 32T108 142Q108 176 115 207T166 412Q177 458 190 510T209 588T216 616Q216 629 209 632T170 637H149Q143 643 143 645T145 664Q150 683 158 683ZM178 109Q178 27 234 27Q247 27 254 29Q295 44 323 94Q343 129 363 208T384 332Q384 354 382 361Q369 405 332 405Q282 405 228 326L222 317L205 250Q178 142 178 109Z"/><path id="MJX-432-TEX-MI-6F" d="M103 155Q103 266 185 354T366 442Q435 442 476 394T517 275Q517 169 436 79T255 -11Q194 -11 149 32T103 155ZM187 119Q187 67 209 47T260 26Q290 26 321 47Q354 68 380 113T426 260Q432 291 432 315Q432 361 408 385Q388 405 358 405Q319 405 283 374T227 294Q217 271 202 213T187 119Z"/><path id="MJX-432-TEX-MI-66" d="M351 608Q351 642 389 661Q368 668 365 668Q358 668 352 664Q349 663 347 661T342 654T337 647T333 637T330 627T327 614T324 601T321 587T318 571L291 432Q291 431 343 431H394Q400 426 400 423T398 404Q394 390 389 386L335 385H282L255 246Q212 20 189 -51Q136 -199 58 -204Q22 -204 0 -185T-23 -134Q-23 -100 -3 -85T37 -69Q54 -69 65 -80T76 -108Q76 -115 75 -119Q70 -134 61 -144T46 -158L39 -161Q39 -162 42 -163T50 -166T61 -168Q77 -168 91 -145Q98 -128 105 -95L125 -1Q145 90 146 98Q149 109 163 180T189 317T202 384T158 385H114Q108 390 108 393T110 412Q113 424 120 431H165Q211 431 211 433Q213 435 219 473T237 561T266 639Q282 667 310 686T367 705Q402 705 426 686T450 635Q450 600 430 585T390 569Q373 569 362 580T351 608Z"/><path id="MJX-432-TEX-N-27E9" d="M55 732Q56 739 61 744T75 750Q85 750 92 740Q95 733 186 494T278 250T187 6T92 -240Q85 -250 75 -250Q67 -250 62 -245T55 -232Q55 -227 145 11Q236 248 236 250T145 489Q55 727 55 732Z"/></defs><g stroke="currentColor" fill="currentColor" stroke-width="0" transform="scale(1,-1)"><g data-mml-node="math"><g data-mml-node="mo"><use data-c="27E8" xlink:href="#MJX-432-TEX-N-27E8"/></g><g data-mml-node="TeXAtom" data-mjx-texclass="ORD" transform="translate(389,0)"><g data-mml-node="mi"><use data-c="62" xlink:href="#MJX-432-TEX-MI-62"/><use data-c="6F" xlink:href="#MJX-432-TEX-MI-6F" transform="translate(460,0)"/><use data-c="66" xlink:href="#MJX-432-TEX-MI-66" transform="translate(971,0)"/></g></g><g data-mml-node="mstyle" transform="translate(1667,0)"><g data-mml-node="mspace"/></g><g data-mml-node="mo" transform="translate(1945,0)"><use data-c="27E9" xlink:href="#MJX-432-TEX-N-27E9"/></g></g></g></svg></mjx-container></div></div></div></foreignObject><text x="17" y="94" fill="#CC0000" font-family="Helvetica" font-size="12px" text-anchor="middle" font-style="italic">\(\lan...</text></switch></g></g><switch><g requiredFeatures="http://www.w3.org/TR/SVG11/feature#Extensibility"/><a transform="translate(0,-5)" xlink:href="https://www.drawio.com/doc/faq/svg-export-text-problems" target="_blank"><text text-anchor="middle" font-size="10px" x="50%" y="100%">Text is not SVG - cannot display</text></a></switch></svg>