<?xml version="1.0" encoding="UTF-8"?>
<!-- Do not edit this file with editors other than diagrams.net -->
<!DOCTYPE svg PUBLIC "-//W3C//DTD SVG 1.1//EN" "http://www.w3.org/Graphics/SVG/1.1/DTD/svg11.dtd">
<svg xmlns="http://www.w3.org/2000/svg" xmlns:xlink="http://www.w3.org/1999/xlink" version="1.1" width="579px" height="262px" viewBox="-0.5 -0.5 579 262" content="&lt;mxfile host=&quot;Electron&quot; modified=&quot;2023-05-22T19:48:59.369Z&quot; agent=&quot;Mozilla/5.0 (Macintosh; Intel Mac OS X 10_15_7) AppleWebKit/537.36 (KHTML, like Gecko) draw.io/21.2.8 Chrome/112.0.5615.165 Electron/24.2.0 Safari/537.36&quot; version=&quot;21.2.8&quot; etag=&quot;iKzvV6bDWlZEG-pqbR69&quot; type=&quot;device&quot;&gt;&lt;diagram name=&quot;Page-1&quot; id=&quot;beaHeq2iJ-BhQDGibNWc&quot;&gt;7VtRb+I4EP41SO1Dq9iOneRxob3dh660EtLdY+USA9kLOEpMCffrb0IcIIm55XYTh+shFWFPbMee7/N4ZkxHZLLKP6c8WX6VoYhH2AnzEXkaYYwcQuGrkOxKCWN+KVikUagbHQXT6C9R9dTSTRSKrNZQSRmrKKkLZ3K9FjNVk/E0ldt6s7mM629N+EK0BNMZj9vSP6JQLUupj72j/IuIFsvqzYgF5ZMVrxrrIbIlD+W2FO0XR55HZJJKqcrSKp+IuFBepZdSA7+deXqYWCrW6pIOuOzwzuONXpuel9pVi03lZh2Kor0zImOZqqVcyDWPX6RMQIhA+F0otdMw8Y2SIFqqVayfliOKsKHTTG7SmRYRDSJPF0LPm7aXgg4KAmYJuRIq3UGTVMRcRe/10bmGeHFod9QCFLQizEohbaXQyd321YGv+5Z+oC/wDirj7TJSYprw/aq2QP26HniWlGScR3mhz/FcrpXWGnKLehTHExnLdD8wCanww0KeqVT+KU6e+PiNMFb0gFf/XlPzu0iVyM+y4YwKdQdM9AbT+9INdH17ZHnVZHlC8Er2K0p3r4OJtM1E72I1ds5EamRi0j8TT3hVPKu4F4o538SqG7YRVGcbRfbYxn7MtoImU109cu35KB3b4KPX5mNln4YgpGckJHym0WLF+2MlrPln7GMXLPXrLGVOm6WugaVuByz1BzGBwVUdxoGRcTmYwGJBJsIB1qq+6DpB1nItGmzSIh5HizVUZ7BKAfJxwZwI/L5P+sEqCsP4HJXr2DRN6Kl57eKoRrRuPN02LVlPxrOy00Of1ajy/U+YigY0jtV8Wo6jmadDOo5dMLDhLFLf3vGNriRuQYbApQd3UXf9JiMY8QCA6zZOpiqKroYoZ6V7NZR7mMZl+jaHREn/zLblfDKH2mOvOwxZDbFNH+bSzFbc9KOo8+j7mFAcuAh5zK0PWE68E+6ag6jctlWezwWbzUxWOfSCN8fpxyozYtEqXxBVWSG6IWhCwYB+gTlq2r7i/4NfwDyLDPSvhIGGGMqaX0ACYgagB7/AHJ0l/TPbml/A7LFX5+ptkxWbwqgezOVlfoHnWvILsDlay21b5WH8Ag9b5PUF0dp1ZFtNF1HVzcQQnsOZqyj4ZB8130qdZmBmL99quoQCdb98RD0zPKCe6TAHHbOzu80HXQAHW+BTB2Juh1GP4pr6qc8eURCAej0HU+p7Fx17rZd4KHh0EXOw7/ueh1g9ScwQe6SBHxD484Iqida9W2i6XoN9pD7iwcqa9spiGtR0HVcQ2gVFz1M+G3njMHmNRt5TUdqWJfKUQ6Fs1sTi+q9OTh1/QHIycZzOXKSgcaVicP37ulLBpsC1gWSmcUwqHNENxTaKbmM/WkXREA43UTz4biWYWQllJb3L7u/Qw0nt/oaxyUdkP8QY4Z5Arsb4J5BfNLogWnIFpd1eoJE+ih7UDV7DkcqGhNecFsj0Jt2sisPTKWzwf/O3Bw3cHIexcRGExPxNxOB4hyJtzKwLo3zBrURfRpkYsg9lDH2yNTHbJxDfUigt9qnEmk2+Yf0vjDMdEGtzvuSlifZE3Z+DXJtwVFpwDF936qHWHdjwbM4R3hhhtucBG44R5pROYb9Bfa9RfjPkvxIjeYbf7HYEJVSP/wdRJiGO/01Cnv8G&lt;/diagram&gt;&lt;/mxfile&gt;"><defs/><g><path d="M 44.57 18.55 L 89.27 29.81" fill="none" stroke="rgb(0, 0, 0)" stroke-miterlimit="10" pointer-events="stroke"/><path d="M 94.36 31.09 L 86.72 32.77 L 89.27 29.81 L 88.43 25.99 Z" fill="rgb(0, 0, 0)" stroke="rgb(0, 0, 0)" stroke-miterlimit="10" pointer-events="all"/><ellipse cx="30" cy="15" rx="15" ry="15" fill="#d5e8d4" stroke="#82b366" transform="translate(0,15)scale(1,-1)translate(0,-15)" pointer-events="all"/><g transform="translate(-0.5 -0.5)"><switch><foreignObject pointer-events="none" width="100%" height="100%" requiredFeatures="http://www.w3.org/TR/SVG11/feature#Extensibility" style="overflow: visible; text-align: left;"><div xmlns="http://www.w3.org/1999/xhtml" style="display: flex; align-items: unsafe center; justify-content: unsafe center; width: 28px; height: 1px; padding-top: 15px; margin-left: 16px;"><div data-drawio-colors="color: rgb(0, 0, 0); " style="box-sizing: border-box; font-size: 0px; text-align: center;"><div style="display: inline-block; font-size: 14px; font-family: Helvetica; color: rgb(0, 0, 0); line-height: 1.2; pointer-events: all; white-space: normal; overflow-wrap: normal;"><mjx-container class="MathJax" jax="SVG"><svg xmlns="http://www.w3.org/2000/svg" width="2.608ex" height="1.377ex" role="img" focusable="false" viewBox="0 -443 1152.6 608.6" xmlns:xlink="http://www.w3.org/1999/xlink" style="vertical-align: -0.375ex;"><defs><path id="MJX-839-TEX-I-1D464" d="M580 385Q580 406 599 424T641 443Q659 443 674 425T690 368Q690 339 671 253Q656 197 644 161T609 80T554 12T482 -11Q438 -11 404 5T355 48Q354 47 352 44Q311 -11 252 -11Q226 -11 202 -5T155 14T118 53T104 116Q104 170 138 262T173 379Q173 380 173 381Q173 390 173 393T169 400T158 404H154Q131 404 112 385T82 344T65 302T57 280Q55 278 41 278H27Q21 284 21 287Q21 293 29 315T52 366T96 418T161 441Q204 441 227 416T250 358Q250 340 217 250T184 111Q184 65 205 46T258 26Q301 26 334 87L339 96V119Q339 122 339 128T340 136T341 143T342 152T345 165T348 182T354 206T362 238T373 281Q402 395 406 404Q419 431 449 431Q468 431 475 421T483 402Q483 389 454 274T422 142Q420 131 420 107V100Q420 85 423 71T442 42T487 26Q558 26 600 148Q609 171 620 213T632 273Q632 306 619 325T593 357T580 385Z"/><path id="MJX-839-TEX-N-30" d="M96 585Q152 666 249 666Q297 666 345 640T423 548Q460 465 460 320Q460 165 417 83Q397 41 362 16T301 -15T250 -22Q224 -22 198 -16T137 16T82 83Q39 165 39 320Q39 494 96 585ZM321 597Q291 629 250 629Q208 629 178 597Q153 571 145 525T137 333Q137 175 145 125T181 46Q209 16 250 16Q290 16 318 46Q347 76 354 130T362 333Q362 478 354 524T321 597Z"/></defs><g stroke="currentColor" fill="currentColor" stroke-width="0" transform="scale(1,-1)"><g data-mml-node="math"><g data-mml-node="msub"><g data-mml-node="mi"><use data-c="1D464" xlink:href="#MJX-839-TEX-I-1D464"/></g><g data-mml-node="mn" transform="translate(749,-150) scale(0.707)"><use data-c="30" xlink:href="#MJX-839-TEX-N-30"/></g></g></g></g></svg></mjx-container></div></div></div></foreignObject><text x="30" y="19" fill="rgb(0, 0, 0)" font-family="Helvetica" font-size="14px" text-anchor="middle">\(w_...</text></switch></g><path d="M 119.29 46.77 L 168.66 109.3" fill="none" stroke="rgb(0, 0, 0)" stroke-miterlimit="10" pointer-events="stroke"/><path d="M 171.91 113.42 L 164.83 110.1 L 168.66 109.3 L 170.32 105.76 Z" fill="rgb(0, 0, 0)" stroke="rgb(0, 0, 0)" stroke-miterlimit="10" pointer-events="all"/><ellipse cx="110" cy="35" rx="15" ry="15" fill="rgb(255, 255, 255)" stroke="rgb(0, 0, 0)" transform="translate(0,35)scale(1,-1)translate(0,-35)" pointer-events="all"/><g transform="translate(-0.5 -0.5)"><switch><foreignObject pointer-events="none" width="100%" height="100%" requiredFeatures="http://www.w3.org/TR/SVG11/feature#Extensibility" style="overflow: visible; text-align: left;"><div xmlns="http://www.w3.org/1999/xhtml" style="display: flex; align-items: unsafe center; justify-content: unsafe center; width: 28px; height: 1px; padding-top: 35px; margin-left: 96px;"><div data-drawio-colors="color: rgb(0, 0, 0); " style="box-sizing: border-box; font-size: 0px; text-align: center;"><div style="display: inline-block; font-size: 14px; font-family: Helvetica; color: rgb(0, 0, 0); line-height: 1.2; pointer-events: all; white-space: normal; overflow-wrap: normal;"><mjx-container class="MathJax" jax="SVG"><svg xmlns="http://www.w3.org/2000/svg" width="2.126ex" height="1.439ex" role="img" focusable="false" viewBox="0 -442 939.6 636" xmlns:xlink="http://www.w3.org/1999/xlink" style="vertical-align: -0.439ex;"><defs><path id="MJX-840-TEX-I-1D45D" d="M23 287Q24 290 25 295T30 317T40 348T55 381T75 411T101 433T134 442Q209 442 230 378L240 387Q302 442 358 442Q423 442 460 395T497 281Q497 173 421 82T249 -10Q227 -10 210 -4Q199 1 187 11T168 28L161 36Q160 35 139 -51T118 -138Q118 -144 126 -145T163 -148H188Q194 -155 194 -157T191 -175Q188 -187 185 -190T172 -194Q170 -194 161 -194T127 -193T65 -192Q-5 -192 -24 -194H-32Q-39 -187 -39 -183Q-37 -156 -26 -148H-6Q28 -147 33 -136Q36 -130 94 103T155 350Q156 355 156 364Q156 405 131 405Q109 405 94 377T71 316T59 280Q57 278 43 278H29Q23 284 23 287ZM178 102Q200 26 252 26Q282 26 310 49T356 107Q374 141 392 215T411 325V331Q411 405 350 405Q339 405 328 402T306 393T286 380T269 365T254 350T243 336T235 326L232 322Q232 321 229 308T218 264T204 212Q178 106 178 102Z"/><path id="MJX-840-TEX-N-30" d="M96 585Q152 666 249 666Q297 666 345 640T423 548Q460 465 460 320Q460 165 417 83Q397 41 362 16T301 -15T250 -22Q224 -22 198 -16T137 16T82 83Q39 165 39 320Q39 494 96 585ZM321 597Q291 629 250 629Q208 629 178 597Q153 571 145 525T137 333Q137 175 145 125T181 46Q209 16 250 16Q290 16 318 46Q347 76 354 130T362 333Q362 478 354 524T321 597Z"/></defs><g stroke="currentColor" fill="currentColor" stroke-width="0" transform="scale(1,-1)"><g data-mml-node="math"><g data-mml-node="msub"><g data-mml-node="mi"><use data-c="1D45D" xlink:href="#MJX-840-TEX-I-1D45D"/></g><g data-mml-node="mn" transform="translate(536,-150) scale(0.707)"><use data-c="30" xlink:href="#MJX-840-TEX-N-30"/></g></g></g></g></svg></mjx-container></div></div></div></foreignObject><text x="110" y="39" fill="rgb(0, 0, 0)" font-family="Helvetica" font-size="14px" text-anchor="middle">\(p_...</text></switch></g><path d="M 205 130 L 278.63 130" fill="none" stroke="rgb(0, 0, 0)" stroke-miterlimit="10" pointer-events="stroke"/><path d="M 283.88 130 L 276.88 133.5 L 278.63 130 L 276.88 126.5 Z" fill="rgb(0, 0, 0)" stroke="rgb(0, 0, 0)" stroke-miterlimit="10" pointer-events="all"/><ellipse cx="185" cy="130" rx="20" ry="20" fill="#d5e8d4" stroke="#82b366" pointer-events="all"/><g transform="translate(-0.5 -0.5)"><switch><foreignObject pointer-events="none" width="100%" height="100%" requiredFeatures="http://www.w3.org/TR/SVG11/feature#Extensibility" style="overflow: visible; text-align: left;"><div xmlns="http://www.w3.org/1999/xhtml" style="display: flex; align-items: unsafe center; justify-content: unsafe center; width: 38px; height: 1px; padding-top: 130px; margin-left: 166px;"><div data-drawio-colors="color: rgb(0, 0, 0); " style="box-sizing: border-box; font-size: 0px; text-align: center;"><div style="display: inline-block; font-size: 23px; font-family: Helvetica; color: rgb(0, 0, 0); line-height: 1.2; pointer-events: all; white-space: normal; overflow-wrap: normal;"><mjx-container class="MathJax" jax="SVG"><svg xmlns="http://www.w3.org/2000/svg" width="1.633ex" height="1.545ex" role="img" focusable="false" viewBox="0 -683 722 683" xmlns:xlink="http://www.w3.org/1999/xlink" style="vertical-align: 0px;"><defs><path id="MJX-841-TEX-N-3A3" d="M666 247Q664 244 652 126T638 4V0H351Q131 0 95 0T57 5V6Q54 12 57 17L73 36Q89 54 121 90T182 159L305 299L56 644L55 658Q55 677 60 681Q63 683 351 683H638V679Q640 674 652 564T666 447V443H626V447Q618 505 604 543T559 605Q529 626 478 631T333 637H294H189L293 494Q314 465 345 422Q400 346 400 340Q400 338 399 337L154 57Q407 57 428 58Q476 60 508 68T551 83T575 103Q595 125 608 162T624 225L626 251H666V247Z"/></defs><g stroke="currentColor" fill="currentColor" stroke-width="0" transform="scale(1,-1)"><g data-mml-node="math"><g data-mml-node="mi"><use data-c="3A3" xlink:href="#MJX-841-TEX-N-3A3"/></g></g></g></svg></mjx-container></div></div></div></foreignObject><text x="185" y="137" fill="rgb(0, 0, 0)" font-family="Helvetica" font-size="23px" text-anchor="middle">\(\S...</text></switch></g><path d="M 60 53.75 L 89.99 42.5" fill="none" stroke="rgb(0, 0, 0)" stroke-miterlimit="10" pointer-events="stroke"/><path d="M 94.91 40.66 L 89.58 46.39 L 89.99 42.5 L 87.13 39.84 Z" fill="rgb(0, 0, 0)" stroke="rgb(0, 0, 0)" stroke-miterlimit="10" pointer-events="all"/><rect x="0" y="50" width="60" height="30" fill="none" stroke="none" transform="translate(0,65)scale(1,-1)translate(0,-65)" pointer-events="all"/><g transform="translate(-0.5 -0.5)"><switch><foreignObject pointer-events="none" width="100%" height="100%" requiredFeatures="http://www.w3.org/TR/SVG11/feature#Extensibility" style="overflow: visible; text-align: left;"><div xmlns="http://www.w3.org/1999/xhtml" style="display: flex; align-items: unsafe center; justify-content: unsafe center; width: 58px; height: 1px; padding-top: 65px; margin-left: 1px;"><div data-drawio-colors="color: rgb(0, 0, 0); " style="box-sizing: border-box; font-size: 0px; text-align: center;"><div style="display: inline-block; font-size: 14px; font-family: Helvetica; color: rgb(0, 0, 0); line-height: 1.2; pointer-events: all; white-space: normal; overflow-wrap: normal;"><mjx-container class="MathJax" jax="SVG"><svg xmlns="http://www.w3.org/2000/svg" width="6.43ex" height="1.881ex" role="img" focusable="false" viewBox="0 -666 2842.1 831.6" xmlns:xlink="http://www.w3.org/1999/xlink" style="vertical-align: -0.375ex;"><defs><path id="MJX-842-TEX-I-1D465" d="M52 289Q59 331 106 386T222 442Q257 442 286 424T329 379Q371 442 430 442Q467 442 494 420T522 361Q522 332 508 314T481 292T458 288Q439 288 427 299T415 328Q415 374 465 391Q454 404 425 404Q412 404 406 402Q368 386 350 336Q290 115 290 78Q290 50 306 38T341 26Q378 26 414 59T463 140Q466 150 469 151T485 153H489Q504 153 504 145Q504 144 502 134Q486 77 440 33T333 -11Q263 -11 227 52Q186 -10 133 -10H127Q78 -10 57 16T35 71Q35 103 54 123T99 143Q142 143 142 101Q142 81 130 66T107 46T94 41L91 40Q91 39 97 36T113 29T132 26Q168 26 194 71Q203 87 217 139T245 247T261 313Q266 340 266 352Q266 380 251 392T217 404Q177 404 142 372T93 290Q91 281 88 280T72 278H58Q52 284 52 289Z"/><path id="MJX-842-TEX-N-30" d="M96 585Q152 666 249 666Q297 666 345 640T423 548Q460 465 460 320Q460 165 417 83Q397 41 362 16T301 -15T250 -22Q224 -22 198 -16T137 16T82 83Q39 165 39 320Q39 494 96 585ZM321 597Q291 629 250 629Q208 629 178 597Q153 571 145 525T137 333Q137 175 145 125T181 46Q209 16 250 16Q290 16 318 46Q347 76 354 130T362 333Q362 478 354 524T321 597Z"/><path id="MJX-842-TEX-N-3D" d="M56 347Q56 360 70 367H707Q722 359 722 347Q722 336 708 328L390 327H72Q56 332 56 347ZM56 153Q56 168 72 173H708Q722 163 722 153Q722 140 707 133H70Q56 140 56 153Z"/><path id="MJX-842-TEX-N-31" d="M213 578L200 573Q186 568 160 563T102 556H83V602H102Q149 604 189 617T245 641T273 663Q275 666 285 666Q294 666 302 660V361L303 61Q310 54 315 52T339 48T401 46H427V0H416Q395 3 257 3Q121 3 100 0H88V46H114Q136 46 152 46T177 47T193 50T201 52T207 57T213 61V578Z"/></defs><g stroke="currentColor" fill="currentColor" stroke-width="0" transform="scale(1,-1)"><g data-mml-node="math"><g data-mml-node="msub"><g data-mml-node="mi"><use data-c="1D465" xlink:href="#MJX-842-TEX-I-1D465"/></g><g data-mml-node="mn" transform="translate(605,-150) scale(0.707)"><use data-c="30" xlink:href="#MJX-842-TEX-N-30"/></g></g><g data-mml-node="mo" transform="translate(1286.3,0)"><use data-c="3D" xlink:href="#MJX-842-TEX-N-3D"/></g><g data-mml-node="mn" transform="translate(2342.1,0)"><use data-c="31" xlink:href="#MJX-842-TEX-N-31"/></g></g></g></svg></mjx-container></div></div></div></foreignObject><text x="30" y="69" fill="rgb(0, 0, 0)" font-family="Helvetica" font-size="14px" text-anchor="middle">\(x_0=1\)</text></switch></g><path d="M 44.34 109.41 L 89.61 123.62" fill="none" stroke="rgb(0, 0, 0)" stroke-miterlimit="10" pointer-events="stroke"/><path d="M 94.62 125.19 L 86.89 126.43 L 89.61 123.62 L 88.99 119.76 Z" fill="rgb(0, 0, 0)" stroke="rgb(0, 0, 0)" stroke-miterlimit="10" pointer-events="all"/><ellipse cx="30" cy="105" rx="15" ry="15" fill="#d5e8d4" stroke="#82b366" pointer-events="all"/><g transform="translate(-0.5 -0.5)"><switch><foreignObject pointer-events="none" width="100%" height="100%" requiredFeatures="http://www.w3.org/TR/SVG11/feature#Extensibility" style="overflow: visible; text-align: left;"><div xmlns="http://www.w3.org/1999/xhtml" style="display: flex; align-items: unsafe center; justify-content: unsafe center; width: 28px; height: 1px; padding-top: 105px; margin-left: 16px;"><div data-drawio-colors="color: rgb(0, 0, 0); " style="box-sizing: border-box; font-size: 0px; text-align: center;"><div style="display: inline-block; font-size: 14px; font-family: Helvetica; color: rgb(0, 0, 0); line-height: 1.2; pointer-events: all; white-space: normal; overflow-wrap: normal;"><mjx-container class="MathJax" jax="SVG"><svg xmlns="http://www.w3.org/2000/svg" width="2.608ex" height="1.342ex" role="img" focusable="false" viewBox="0 -443 1152.6 593" xmlns:xlink="http://www.w3.org/1999/xlink" style="vertical-align: -0.339ex;"><defs><path id="MJX-843-TEX-I-1D464" d="M580 385Q580 406 599 424T641 443Q659 443 674 425T690 368Q690 339 671 253Q656 197 644 161T609 80T554 12T482 -11Q438 -11 404 5T355 48Q354 47 352 44Q311 -11 252 -11Q226 -11 202 -5T155 14T118 53T104 116Q104 170 138 262T173 379Q173 380 173 381Q173 390 173 393T169 400T158 404H154Q131 404 112 385T82 344T65 302T57 280Q55 278 41 278H27Q21 284 21 287Q21 293 29 315T52 366T96 418T161 441Q204 441 227 416T250 358Q250 340 217 250T184 111Q184 65 205 46T258 26Q301 26 334 87L339 96V119Q339 122 339 128T340 136T341 143T342 152T345 165T348 182T354 206T362 238T373 281Q402 395 406 404Q419 431 449 431Q468 431 475 421T483 402Q483 389 454 274T422 142Q420 131 420 107V100Q420 85 423 71T442 42T487 26Q558 26 600 148Q609 171 620 213T632 273Q632 306 619 325T593 357T580 385Z"/><path id="MJX-843-TEX-N-31" d="M213 578L200 573Q186 568 160 563T102 556H83V602H102Q149 604 189 617T245 641T273 663Q275 666 285 666Q294 666 302 660V361L303 61Q310 54 315 52T339 48T401 46H427V0H416Q395 3 257 3Q121 3 100 0H88V46H114Q136 46 152 46T177 47T193 50T201 52T207 57T213 61V578Z"/></defs><g stroke="currentColor" fill="currentColor" stroke-width="0" transform="scale(1,-1)"><g data-mml-node="math"><g data-mml-node="msub"><g data-mml-node="mi"><use data-c="1D464" xlink:href="#MJX-843-TEX-I-1D464"/></g><g data-mml-node="mn" transform="translate(749,-150) scale(0.707)"><use data-c="31" xlink:href="#MJX-843-TEX-N-31"/></g></g></g></g></svg></mjx-container></div></div></div></foreignObject><text x="30" y="109" fill="rgb(0, 0, 0)" font-family="Helvetica" font-size="14px" text-anchor="middle">\(w_...</text></switch></g><path d="M 125 130 L 158.63 130" fill="none" stroke="rgb(0, 0, 0)" stroke-miterlimit="10" pointer-events="stroke"/><path d="M 163.88 130 L 156.88 133.5 L 158.63 130 L 156.88 126.5 Z" fill="rgb(0, 0, 0)" stroke="rgb(0, 0, 0)" stroke-miterlimit="10" pointer-events="all"/><ellipse cx="110" cy="130" rx="15" ry="15" fill="rgb(255, 255, 255)" stroke="rgb(0, 0, 0)" pointer-events="all"/><g transform="translate(-0.5 -0.5)"><switch><foreignObject pointer-events="none" width="100%" height="100%" requiredFeatures="http://www.w3.org/TR/SVG11/feature#Extensibility" style="overflow: visible; text-align: left;"><div xmlns="http://www.w3.org/1999/xhtml" style="display: flex; align-items: unsafe center; justify-content: unsafe center; width: 28px; height: 1px; padding-top: 130px; margin-left: 96px;"><div data-drawio-colors="color: rgb(0, 0, 0); " style="box-sizing: border-box; font-size: 0px; text-align: center;"><div style="display: inline-block; font-size: 14px; font-family: Helvetica; color: rgb(0, 0, 0); line-height: 1.2; pointer-events: all; white-space: normal; overflow-wrap: normal;"><mjx-container class="MathJax" jax="SVG"><svg xmlns="http://www.w3.org/2000/svg" width="2.126ex" height="1.439ex" role="img" focusable="false" viewBox="0 -442 939.6 636" xmlns:xlink="http://www.w3.org/1999/xlink" style="vertical-align: -0.439ex;"><defs><path id="MJX-844-TEX-I-1D45D" d="M23 287Q24 290 25 295T30 317T40 348T55 381T75 411T101 433T134 442Q209 442 230 378L240 387Q302 442 358 442Q423 442 460 395T497 281Q497 173 421 82T249 -10Q227 -10 210 -4Q199 1 187 11T168 28L161 36Q160 35 139 -51T118 -138Q118 -144 126 -145T163 -148H188Q194 -155 194 -157T191 -175Q188 -187 185 -190T172 -194Q170 -194 161 -194T127 -193T65 -192Q-5 -192 -24 -194H-32Q-39 -187 -39 -183Q-37 -156 -26 -148H-6Q28 -147 33 -136Q36 -130 94 103T155 350Q156 355 156 364Q156 405 131 405Q109 405 94 377T71 316T59 280Q57 278 43 278H29Q23 284 23 287ZM178 102Q200 26 252 26Q282 26 310 49T356 107Q374 141 392 215T411 325V331Q411 405 350 405Q339 405 328 402T306 393T286 380T269 365T254 350T243 336T235 326L232 322Q232 321 229 308T218 264T204 212Q178 106 178 102Z"/><path id="MJX-844-TEX-N-31" d="M213 578L200 573Q186 568 160 563T102 556H83V602H102Q149 604 189 617T245 641T273 663Q275 666 285 666Q294 666 302 660V361L303 61Q310 54 315 52T339 48T401 46H427V0H416Q395 3 257 3Q121 3 100 0H88V46H114Q136 46 152 46T177 47T193 50T201 52T207 57T213 61V578Z"/></defs><g stroke="currentColor" fill="currentColor" stroke-width="0" transform="scale(1,-1)"><g data-mml-node="math"><g data-mml-node="msub"><g data-mml-node="mi"><use data-c="1D45D" xlink:href="#MJX-844-TEX-I-1D45D"/></g><g data-mml-node="mn" transform="translate(536,-150) scale(0.707)"><use data-c="31" xlink:href="#MJX-844-TEX-N-31"/></g></g></g></g></svg></mjx-container></div></div></div></foreignObject><text x="110" y="134" fill="rgb(0, 0, 0)" font-family="Helvetica" font-size="14px" text-anchor="middle">\(p_...</text></switch></g><path d="M 44.34 150.59 L 89.61 136.38" fill="none" stroke="rgb(0, 0, 0)" stroke-miterlimit="10" pointer-events="stroke"/><path d="M 94.62 134.81 L 88.99 140.24 L 89.61 136.38 L 86.89 133.57 Z" fill="rgb(0, 0, 0)" stroke="rgb(0, 0, 0)" stroke-miterlimit="10" pointer-events="all"/><ellipse cx="30" cy="155" rx="15" ry="15" fill="#ffe6cc" stroke="#d79b00" pointer-events="all"/><g transform="translate(-0.5 -0.5)"><switch><foreignObject pointer-events="none" width="100%" height="100%" requiredFeatures="http://www.w3.org/TR/SVG11/feature#Extensibility" style="overflow: visible; text-align: left;"><div xmlns="http://www.w3.org/1999/xhtml" style="display: flex; align-items: unsafe center; justify-content: unsafe center; width: 28px; height: 1px; padding-top: 155px; margin-left: 16px;"><div data-drawio-colors="color: rgb(0, 0, 0); " style="box-sizing: border-box; font-size: 0px; text-align: center;"><div style="display: inline-block; font-size: 14px; font-family: Helvetica; color: rgb(0, 0, 0); line-height: 1.2; pointer-events: all; white-space: normal; overflow-wrap: normal;"><mjx-container class="MathJax" jax="SVG"><svg xmlns="http://www.w3.org/2000/svg" width="2.282ex" height="1.339ex" role="img" focusable="false" viewBox="0 -442 1008.6 592" xmlns:xlink="http://www.w3.org/1999/xlink" style="vertical-align: -0.339ex;"><defs><path id="MJX-845-TEX-I-1D465" d="M52 289Q59 331 106 386T222 442Q257 442 286 424T329 379Q371 442 430 442Q467 442 494 420T522 361Q522 332 508 314T481 292T458 288Q439 288 427 299T415 328Q415 374 465 391Q454 404 425 404Q412 404 406 402Q368 386 350 336Q290 115 290 78Q290 50 306 38T341 26Q378 26 414 59T463 140Q466 150 469 151T485 153H489Q504 153 504 145Q504 144 502 134Q486 77 440 33T333 -11Q263 -11 227 52Q186 -10 133 -10H127Q78 -10 57 16T35 71Q35 103 54 123T99 143Q142 143 142 101Q142 81 130 66T107 46T94 41L91 40Q91 39 97 36T113 29T132 26Q168 26 194 71Q203 87 217 139T245 247T261 313Q266 340 266 352Q266 380 251 392T217 404Q177 404 142 372T93 290Q91 281 88 280T72 278H58Q52 284 52 289Z"/><path id="MJX-845-TEX-N-31" d="M213 578L200 573Q186 568 160 563T102 556H83V602H102Q149 604 189 617T245 641T273 663Q275 666 285 666Q294 666 302 660V361L303 61Q310 54 315 52T339 48T401 46H427V0H416Q395 3 257 3Q121 3 100 0H88V46H114Q136 46 152 46T177 47T193 50T201 52T207 57T213 61V578Z"/></defs><g stroke="currentColor" fill="currentColor" stroke-width="0" transform="scale(1,-1)"><g data-mml-node="math"><g data-mml-node="msub"><g data-mml-node="mi"><use data-c="1D465" xlink:href="#MJX-845-TEX-I-1D465"/></g><g data-mml-node="mn" transform="translate(605,-150) scale(0.707)"><use data-c="31" xlink:href="#MJX-845-TEX-N-31"/></g></g></g></g></svg></mjx-container></div></div></div></foreignObject><text x="30" y="159" fill="rgb(0, 0, 0)" font-family="Helvetica" font-size="14px" text-anchor="middle">\(x_...</text></switch></g><path d="M 44.9 193.28 L 88.8 187.67" fill="none" stroke="rgb(0, 0, 0)" stroke-miterlimit="10" pointer-events="stroke"/><path d="M 94.01 187 L 87.51 191.36 L 88.8 187.67 L 86.62 184.42 Z" fill="rgb(0, 0, 0)" stroke="rgb(0, 0, 0)" stroke-miterlimit="10" pointer-events="all"/><ellipse cx="30" cy="195" rx="15" ry="15" fill="#d5e8d4" stroke="#82b366" pointer-events="all"/><g transform="translate(-0.5 -0.5)"><switch><foreignObject pointer-events="none" width="100%" height="100%" requiredFeatures="http://www.w3.org/TR/SVG11/feature#Extensibility" style="overflow: visible; text-align: left;"><div xmlns="http://www.w3.org/1999/xhtml" style="display: flex; align-items: unsafe center; justify-content: unsafe center; width: 28px; height: 1px; padding-top: 195px; margin-left: 16px;"><div data-drawio-colors="color: rgb(0, 0, 0); " style="box-sizing: border-box; font-size: 0px; text-align: center;"><div style="display: inline-block; font-size: 14px; font-family: Helvetica; color: rgb(0, 0, 0); line-height: 1.2; pointer-events: all; white-space: normal; overflow-wrap: normal;"><mjx-container class="MathJax" jax="SVG"><svg xmlns="http://www.w3.org/2000/svg" width="2.608ex" height="1.342ex" role="img" focusable="false" viewBox="0 -443 1152.6 593" xmlns:xlink="http://www.w3.org/1999/xlink" style="vertical-align: -0.339ex;"><defs><path id="MJX-846-TEX-I-1D464" d="M580 385Q580 406 599 424T641 443Q659 443 674 425T690 368Q690 339 671 253Q656 197 644 161T609 80T554 12T482 -11Q438 -11 404 5T355 48Q354 47 352 44Q311 -11 252 -11Q226 -11 202 -5T155 14T118 53T104 116Q104 170 138 262T173 379Q173 380 173 381Q173 390 173 393T169 400T158 404H154Q131 404 112 385T82 344T65 302T57 280Q55 278 41 278H27Q21 284 21 287Q21 293 29 315T52 366T96 418T161 441Q204 441 227 416T250 358Q250 340 217 250T184 111Q184 65 205 46T258 26Q301 26 334 87L339 96V119Q339 122 339 128T340 136T341 143T342 152T345 165T348 182T354 206T362 238T373 281Q402 395 406 404Q419 431 449 431Q468 431 475 421T483 402Q483 389 454 274T422 142Q420 131 420 107V100Q420 85 423 71T442 42T487 26Q558 26 600 148Q609 171 620 213T632 273Q632 306 619 325T593 357T580 385Z"/><path id="MJX-846-TEX-N-32" d="M109 429Q82 429 66 447T50 491Q50 562 103 614T235 666Q326 666 387 610T449 465Q449 422 429 383T381 315T301 241Q265 210 201 149L142 93L218 92Q375 92 385 97Q392 99 409 186V189H449V186Q448 183 436 95T421 3V0H50V19V31Q50 38 56 46T86 81Q115 113 136 137Q145 147 170 174T204 211T233 244T261 278T284 308T305 340T320 369T333 401T340 431T343 464Q343 527 309 573T212 619Q179 619 154 602T119 569T109 550Q109 549 114 549Q132 549 151 535T170 489Q170 464 154 447T109 429Z"/></defs><g stroke="currentColor" fill="currentColor" stroke-width="0" transform="scale(1,-1)"><g data-mml-node="math"><g data-mml-node="msub"><g data-mml-node="mi"><use data-c="1D464" xlink:href="#MJX-846-TEX-I-1D464"/></g><g data-mml-node="mn" transform="translate(749,-150) scale(0.707)"><use data-c="32" xlink:href="#MJX-846-TEX-N-32"/></g></g></g></g></svg></mjx-container></div></div></div></foreignObject><text x="30" y="199" fill="rgb(0, 0, 0)" font-family="Helvetica" font-size="14px" text-anchor="middle">\(w_...</text></switch></g><path d="M 122.12 176.17 L 163.74 145.6" fill="none" stroke="rgb(0, 0, 0)" stroke-miterlimit="10" pointer-events="stroke"/><path d="M 167.97 142.49 L 164.4 149.45 L 163.74 145.6 L 160.26 143.81 Z" fill="rgb(0, 0, 0)" stroke="rgb(0, 0, 0)" stroke-miterlimit="10" pointer-events="all"/><ellipse cx="110" cy="185" rx="15" ry="15" fill="rgb(255, 255, 255)" stroke="rgb(0, 0, 0)" pointer-events="all"/><g transform="translate(-0.5 -0.5)"><switch><foreignObject pointer-events="none" width="100%" height="100%" requiredFeatures="http://www.w3.org/TR/SVG11/feature#Extensibility" style="overflow: visible; text-align: left;"><div xmlns="http://www.w3.org/1999/xhtml" style="display: flex; align-items: unsafe center; justify-content: unsafe center; width: 28px; height: 1px; padding-top: 185px; margin-left: 96px;"><div data-drawio-colors="color: rgb(0, 0, 0); " style="box-sizing: border-box; font-size: 0px; text-align: center;"><div style="display: inline-block; font-size: 14px; font-family: Helvetica; color: rgb(0, 0, 0); line-height: 1.2; pointer-events: all; white-space: normal; overflow-wrap: normal;"><mjx-container class="MathJax" jax="SVG"><svg xmlns="http://www.w3.org/2000/svg" width="2.126ex" height="1.439ex" role="img" focusable="false" viewBox="0 -442 939.6 636" xmlns:xlink="http://www.w3.org/1999/xlink" style="vertical-align: -0.439ex;"><defs><path id="MJX-847-TEX-I-1D45D" d="M23 287Q24 290 25 295T30 317T40 348T55 381T75 411T101 433T134 442Q209 442 230 378L240 387Q302 442 358 442Q423 442 460 395T497 281Q497 173 421 82T249 -10Q227 -10 210 -4Q199 1 187 11T168 28L161 36Q160 35 139 -51T118 -138Q118 -144 126 -145T163 -148H188Q194 -155 194 -157T191 -175Q188 -187 185 -190T172 -194Q170 -194 161 -194T127 -193T65 -192Q-5 -192 -24 -194H-32Q-39 -187 -39 -183Q-37 -156 -26 -148H-6Q28 -147 33 -136Q36 -130 94 103T155 350Q156 355 156 364Q156 405 131 405Q109 405 94 377T71 316T59 280Q57 278 43 278H29Q23 284 23 287ZM178 102Q200 26 252 26Q282 26 310 49T356 107Q374 141 392 215T411 325V331Q411 405 350 405Q339 405 328 402T306 393T286 380T269 365T254 350T243 336T235 326L232 322Q232 321 229 308T218 264T204 212Q178 106 178 102Z"/><path id="MJX-847-TEX-N-32" d="M109 429Q82 429 66 447T50 491Q50 562 103 614T235 666Q326 666 387 610T449 465Q449 422 429 383T381 315T301 241Q265 210 201 149L142 93L218 92Q375 92 385 97Q392 99 409 186V189H449V186Q448 183 436 95T421 3V0H50V19V31Q50 38 56 46T86 81Q115 113 136 137Q145 147 170 174T204 211T233 244T261 278T284 308T305 340T320 369T333 401T340 431T343 464Q343 527 309 573T212 619Q179 619 154 602T119 569T109 550Q109 549 114 549Q132 549 151 535T170 489Q170 464 154 447T109 429Z"/></defs><g stroke="currentColor" fill="currentColor" stroke-width="0" transform="scale(1,-1)"><g data-mml-node="math"><g data-mml-node="msub"><g data-mml-node="mi"><use data-c="1D45D" xlink:href="#MJX-847-TEX-I-1D45D"/></g><g data-mml-node="mn" transform="translate(536,-150) scale(0.707)"><use data-c="32" xlink:href="#MJX-847-TEX-N-32"/></g></g></g></g></svg></mjx-container></div></div></div></foreignObject><text x="110" y="189" fill="rgb(0, 0, 0)" font-family="Helvetica" font-size="14px" text-anchor="middle">\(p_...</text></switch></g><path d="M 41.98 235.98 L 92.9 197.82" fill="none" stroke="rgb(0, 0, 0)" stroke-miterlimit="10" pointer-events="stroke"/><path d="M 97.11 194.67 L 93.6 201.67 L 92.9 197.82 L 89.4 196.07 Z" fill="rgb(0, 0, 0)" stroke="rgb(0, 0, 0)" stroke-miterlimit="10" pointer-events="all"/><ellipse cx="30" cy="245" rx="15" ry="15" fill="#ffe6cc" stroke="#d79b00" pointer-events="all"/><g transform="translate(-0.5 -0.5)"><switch><foreignObject pointer-events="none" width="100%" height="100%" requiredFeatures="http://www.w3.org/TR/SVG11/feature#Extensibility" style="overflow: visible; text-align: left;"><div xmlns="http://www.w3.org/1999/xhtml" style="display: flex; align-items: unsafe center; justify-content: unsafe center; width: 28px; height: 1px; padding-top: 245px; margin-left: 16px;"><div data-drawio-colors="color: rgb(0, 0, 0); " style="box-sizing: border-box; font-size: 0px; text-align: center;"><div style="display: inline-block; font-size: 14px; font-family: Helvetica; color: rgb(0, 0, 0); line-height: 1.2; pointer-events: all; white-space: normal; overflow-wrap: normal;"><mjx-container class="MathJax" jax="SVG"><svg xmlns="http://www.w3.org/2000/svg" width="2.282ex" height="1.339ex" role="img" focusable="false" viewBox="0 -442 1008.6 592" xmlns:xlink="http://www.w3.org/1999/xlink" style="vertical-align: -0.339ex;"><defs><path id="MJX-848-TEX-I-1D465" d="M52 289Q59 331 106 386T222 442Q257 442 286 424T329 379Q371 442 430 442Q467 442 494 420T522 361Q522 332 508 314T481 292T458 288Q439 288 427 299T415 328Q415 374 465 391Q454 404 425 404Q412 404 406 402Q368 386 350 336Q290 115 290 78Q290 50 306 38T341 26Q378 26 414 59T463 140Q466 150 469 151T485 153H489Q504 153 504 145Q504 144 502 134Q486 77 440 33T333 -11Q263 -11 227 52Q186 -10 133 -10H127Q78 -10 57 16T35 71Q35 103 54 123T99 143Q142 143 142 101Q142 81 130 66T107 46T94 41L91 40Q91 39 97 36T113 29T132 26Q168 26 194 71Q203 87 217 139T245 247T261 313Q266 340 266 352Q266 380 251 392T217 404Q177 404 142 372T93 290Q91 281 88 280T72 278H58Q52 284 52 289Z"/><path id="MJX-848-TEX-N-32" d="M109 429Q82 429 66 447T50 491Q50 562 103 614T235 666Q326 666 387 610T449 465Q449 422 429 383T381 315T301 241Q265 210 201 149L142 93L218 92Q375 92 385 97Q392 99 409 186V189H449V186Q448 183 436 95T421 3V0H50V19V31Q50 38 56 46T86 81Q115 113 136 137Q145 147 170 174T204 211T233 244T261 278T284 308T305 340T320 369T333 401T340 431T343 464Q343 527 309 573T212 619Q179 619 154 602T119 569T109 550Q109 549 114 549Q132 549 151 535T170 489Q170 464 154 447T109 429Z"/></defs><g stroke="currentColor" fill="currentColor" stroke-width="0" transform="scale(1,-1)"><g data-mml-node="math"><g data-mml-node="msub"><g data-mml-node="mi"><use data-c="1D465" xlink:href="#MJX-848-TEX-I-1D465"/></g><g data-mml-node="mn" transform="translate(605,-150) scale(0.707)"><use data-c="32" xlink:href="#MJX-848-TEX-N-32"/></g></g></g></g></svg></mjx-container></div></div></div></foreignObject><text x="30" y="249" fill="rgb(0, 0, 0)" font-family="Helvetica" font-size="14px" text-anchor="middle">\(x_...</text></switch></g><path d="M 325 130 L 398.63 130" fill="none" stroke="rgb(0, 0, 0)" stroke-miterlimit="10" pointer-events="stroke"/><path d="M 403.88 130 L 396.88 133.5 L 398.63 130 L 396.88 126.5 Z" fill="rgb(0, 0, 0)" stroke="rgb(0, 0, 0)" stroke-miterlimit="10" pointer-events="all"/><ellipse cx="305" cy="130" rx="20" ry="20" fill="#d5e8d4" stroke="#82b366" pointer-events="all"/><g transform="translate(-0.5 -0.5)"><switch><foreignObject pointer-events="none" width="100%" height="100%" requiredFeatures="http://www.w3.org/TR/SVG11/feature#Extensibility" style="overflow: visible; text-align: left;"><div xmlns="http://www.w3.org/1999/xhtml" style="display: flex; align-items: unsafe center; justify-content: unsafe center; width: 38px; height: 1px; padding-top: 130px; margin-left: 286px;"><div data-drawio-colors="color: rgb(0, 0, 0); " style="box-sizing: border-box; font-size: 0px; text-align: center;"><div style="display: inline-block; font-size: 23px; font-family: Helvetica; color: rgb(0, 0, 0); line-height: 1.2; pointer-events: all; white-space: normal; overflow-wrap: normal;"><mjx-container class="MathJax" jax="SVG"><svg xmlns="http://www.w3.org/2000/svg" width="1.292ex" height="1ex" role="img" focusable="false" viewBox="0 -431 571 442" xmlns:xlink="http://www.w3.org/1999/xlink" style="vertical-align: -0.025ex;"><defs><path id="MJX-849-TEX-I-1D70E" d="M184 -11Q116 -11 74 34T31 147Q31 247 104 333T274 430Q275 431 414 431H552Q553 430 555 429T559 427T562 425T565 422T567 420T569 416T570 412T571 407T572 401Q572 357 507 357Q500 357 490 357T476 358H416L421 348Q439 310 439 263Q439 153 359 71T184 -11ZM361 278Q361 358 276 358Q152 358 115 184Q114 180 114 178Q106 141 106 117Q106 67 131 47T188 26Q242 26 287 73Q316 103 334 153T356 233T361 278Z"/></defs><g stroke="currentColor" fill="currentColor" stroke-width="0" transform="scale(1,-1)"><g data-mml-node="math"><g data-mml-node="mi"><use data-c="1D70E" xlink:href="#MJX-849-TEX-I-1D70E"/></g></g></g></svg></mjx-container></div></div></div></foreignObject><text x="305" y="137" fill="rgb(0, 0, 0)" font-family="Helvetica" font-size="23px" text-anchor="middle">\(\s...</text></switch></g><ellipse cx="425" cy="130" rx="20" ry="20" fill="#d5e8d4" stroke="#82b366" pointer-events="all"/><g transform="translate(-0.5 -0.5)"><switch><foreignObject pointer-events="none" width="100%" height="100%" requiredFeatures="http://www.w3.org/TR/SVG11/feature#Extensibility" style="overflow: visible; text-align: left;"><div xmlns="http://www.w3.org/1999/xhtml" style="display: flex; align-items: unsafe center; justify-content: unsafe center; width: 38px; height: 1px; padding-top: 130px; margin-left: 406px;"><div data-drawio-colors="color: rgb(0, 0, 0); " style="box-sizing: border-box; font-size: 0px; text-align: center;"><div style="display: inline-block; font-size: 23px; font-family: Helvetica; color: rgb(0, 0, 0); line-height: 1.2; pointer-events: all; white-space: normal; overflow-wrap: normal;"><mjx-container class="MathJax" jax="SVG"><svg xmlns="http://www.w3.org/2000/svg" width="1.541ex" height="1.545ex" role="img" focusable="false" viewBox="0 -683 681 683" xmlns:xlink="http://www.w3.org/1999/xlink" style="vertical-align: 0px;"><defs><path id="MJX-850-TEX-I-1D43F" d="M228 637Q194 637 192 641Q191 643 191 649Q191 673 202 682Q204 683 217 683Q271 680 344 680Q485 680 506 683H518Q524 677 524 674T522 656Q517 641 513 637H475Q406 636 394 628Q387 624 380 600T313 336Q297 271 279 198T252 88L243 52Q243 48 252 48T311 46H328Q360 46 379 47T428 54T478 72T522 106T564 161Q580 191 594 228T611 270Q616 273 628 273H641Q647 264 647 262T627 203T583 83T557 9Q555 4 553 3T537 0T494 -1Q483 -1 418 -1T294 0H116Q32 0 32 10Q32 17 34 24Q39 43 44 45Q48 46 59 46H65Q92 46 125 49Q139 52 144 61Q147 65 216 339T285 628Q285 635 228 637Z"/></defs><g stroke="currentColor" fill="currentColor" stroke-width="0" transform="scale(1,-1)"><g data-mml-node="math"><g data-mml-node="mi"><use data-c="1D43F" xlink:href="#MJX-850-TEX-I-1D43F"/></g></g></g></svg></mjx-container></div></div></div></foreignObject><text x="425" y="137" fill="rgb(0, 0, 0)" font-family="Helvetica" font-size="23px" text-anchor="middle">\(L\)</text></switch></g><path d="M 404.68 190.75 L 416.65 155.01" fill="none" stroke="rgb(0, 0, 0)" stroke-miterlimit="10" pointer-events="stroke"/><path d="M 418.32 150.03 L 419.42 157.78 L 416.65 155.01 L 412.78 155.56 Z" fill="rgb(0, 0, 0)" stroke="rgb(0, 0, 0)" stroke-miterlimit="10" pointer-events="all"/><ellipse cx="400" cy="205" rx="15" ry="15" fill="#ffe6cc" stroke="#d79b00" pointer-events="all"/><g transform="translate(-0.5 -0.5)"><switch><foreignObject pointer-events="none" width="100%" height="100%" requiredFeatures="http://www.w3.org/TR/SVG11/feature#Extensibility" style="overflow: visible; text-align: left;"><div xmlns="http://www.w3.org/1999/xhtml" style="display: flex; align-items: unsafe center; justify-content: unsafe center; width: 28px; height: 1px; padding-top: 205px; margin-left: 386px;"><div data-drawio-colors="color: rgb(0, 0, 0); " style="box-sizing: border-box; font-size: 0px; text-align: center;"><div style="display: inline-block; font-size: 14px; font-family: Helvetica; color: rgb(0, 0, 0); line-height: 1.2; pointer-events: all; white-space: normal; overflow-wrap: normal;"><mjx-container class="MathJax" jax="SVG"><svg xmlns="http://www.w3.org/2000/svg" width="0.817ex" height="1.441ex" role="img" focusable="false" viewBox="0 -626 361 637" xmlns:xlink="http://www.w3.org/1999/xlink" style="vertical-align: -0.025ex;"><defs><path id="MJX-851-TEX-I-1D461" d="M26 385Q19 392 19 395Q19 399 22 411T27 425Q29 430 36 430T87 431H140L159 511Q162 522 166 540T173 566T179 586T187 603T197 615T211 624T229 626Q247 625 254 615T261 596Q261 589 252 549T232 470L222 433Q222 431 272 431H323Q330 424 330 420Q330 398 317 385H210L174 240Q135 80 135 68Q135 26 162 26Q197 26 230 60T283 144Q285 150 288 151T303 153H307Q322 153 322 145Q322 142 319 133Q314 117 301 95T267 48T216 6T155 -11Q125 -11 98 4T59 56Q57 64 57 83V101L92 241Q127 382 128 383Q128 385 77 385H26Z"/></defs><g stroke="currentColor" fill="currentColor" stroke-width="0" transform="scale(1,-1)"><g data-mml-node="math"><g data-mml-node="mi"><use data-c="1D461" xlink:href="#MJX-851-TEX-I-1D461"/></g></g></g></svg></mjx-container></div></div></div></foreignObject><text x="400" y="209" fill="rgb(0, 0, 0)" font-family="Helvetica" font-size="14px" text-anchor="middle">\(t\)</text></switch></g><rect x="80" y="70" width="60" height="30" fill="none" stroke="none" transform="translate(0,85)scale(1,-1)translate(0,-85)" pointer-events="all"/><g transform="translate(-0.5 -0.5)"><switch><foreignObject pointer-events="none" width="100%" height="100%" requiredFeatures="http://www.w3.org/TR/SVG11/feature#Extensibility" style="overflow: visible; text-align: left;"><div xmlns="http://www.w3.org/1999/xhtml" style="display: flex; align-items: unsafe center; justify-content: unsafe center; width: 58px; height: 1px; padding-top: 85px; margin-left: 81px;"><div data-drawio-colors="color: #CC0000; " style="box-sizing: border-box; font-size: 0px; text-align: center;"><div style="display: inline-block; font-size: 14px; font-family: Helvetica; color: rgb(204, 0, 0); line-height: 1.2; pointer-events: all; white-space: normal; overflow-wrap: normal;"><mjx-container class="MathJax" jax="SVG" display="true"><svg xmlns="http://www.w3.org/2000/svg" width="9.582ex" height="5.009ex" role="img" focusable="false" viewBox="0 -1370 4235.5 2213.8" xmlns:xlink="http://www.w3.org/1999/xlink" style="vertical-align: -1.909ex;"><defs><path id="MJX-852-TEX-I-1D451" d="M366 683Q367 683 438 688T511 694Q523 694 523 686Q523 679 450 384T375 83T374 68Q374 26 402 26Q411 27 422 35Q443 55 463 131Q469 151 473 152Q475 153 483 153H487H491Q506 153 506 145Q506 140 503 129Q490 79 473 48T445 8T417 -8Q409 -10 393 -10Q359 -10 336 5T306 36L300 51Q299 52 296 50Q294 48 292 46Q233 -10 172 -10Q117 -10 75 30T33 157Q33 205 53 255T101 341Q148 398 195 420T280 442Q336 442 364 400Q369 394 369 396Q370 400 396 505T424 616Q424 629 417 632T378 637H357Q351 643 351 645T353 664Q358 683 366 683ZM352 326Q329 405 277 405Q242 405 210 374T160 293Q131 214 119 129Q119 126 119 118T118 106Q118 61 136 44T179 26Q233 26 290 98L298 109L352 326Z"/><path id="MJX-852-TEX-I-1D45D" d="M23 287Q24 290 25 295T30 317T40 348T55 381T75 411T101 433T134 442Q209 442 230 378L240 387Q302 442 358 442Q423 442 460 395T497 281Q497 173 421 82T249 -10Q227 -10 210 -4Q199 1 187 11T168 28L161 36Q160 35 139 -51T118 -138Q118 -144 126 -145T163 -148H188Q194 -155 194 -157T191 -175Q188 -187 185 -190T172 -194Q170 -194 161 -194T127 -193T65 -192Q-5 -192 -24 -194H-32Q-39 -187 -39 -183Q-37 -156 -26 -148H-6Q28 -147 33 -136Q36 -130 94 103T155 350Q156 355 156 364Q156 405 131 405Q109 405 94 377T71 316T59 280Q57 278 43 278H29Q23 284 23 287ZM178 102Q200 26 252 26Q282 26 310 49T356 107Q374 141 392 215T411 325V331Q411 405 350 405Q339 405 328 402T306 393T286 380T269 365T254 350T243 336T235 326L232 322Q232 321 229 308T218 264T204 212Q178 106 178 102Z"/><path id="MJX-852-TEX-I-1D456" d="M184 600Q184 624 203 642T247 661Q265 661 277 649T290 619Q290 596 270 577T226 557Q211 557 198 567T184 600ZM21 287Q21 295 30 318T54 369T98 420T158 442Q197 442 223 419T250 357Q250 340 236 301T196 196T154 83Q149 61 149 51Q149 26 166 26Q175 26 185 29T208 43T235 78T260 137Q263 149 265 151T282 153Q302 153 302 143Q302 135 293 112T268 61T223 11T161 -11Q129 -11 102 10T74 74Q74 91 79 106T122 220Q160 321 166 341T173 380Q173 404 156 404H154Q124 404 99 371T61 287Q60 286 59 284T58 281T56 279T53 278T49 278T41 278H27Q21 284 21 287Z"/><path id="MJX-852-TEX-I-1D464" d="M580 385Q580 406 599 424T641 443Q659 443 674 425T690 368Q690 339 671 253Q656 197 644 161T609 80T554 12T482 -11Q438 -11 404 5T355 48Q354 47 352 44Q311 -11 252 -11Q226 -11 202 -5T155 14T118 53T104 116Q104 170 138 262T173 379Q173 380 173 381Q173 390 173 393T169 400T158 404H154Q131 404 112 385T82 344T65 302T57 280Q55 278 41 278H27Q21 284 21 287Q21 293 29 315T52 366T96 418T161 441Q204 441 227 416T250 358Q250 340 217 250T184 111Q184 65 205 46T258 26Q301 26 334 87L339 96V119Q339 122 339 128T340 136T341 143T342 152T345 165T348 182T354 206T362 238T373 281Q402 395 406 404Q419 431 449 431Q468 431 475 421T483 402Q483 389 454 274T422 142Q420 131 420 107V100Q420 85 423 71T442 42T487 26Q558 26 600 148Q609 171 620 213T632 273Q632 306 619 325T593 357T580 385Z"/><path id="MJX-852-TEX-N-3D" d="M56 347Q56 360 70 367H707Q722 359 722 347Q722 336 708 328L390 327H72Q56 332 56 347ZM56 153Q56 168 72 173H708Q722 163 722 153Q722 140 707 133H70Q56 140 56 153Z"/><path id="MJX-852-TEX-I-1D465" d="M52 289Q59 331 106 386T222 442Q257 442 286 424T329 379Q371 442 430 442Q467 442 494 420T522 361Q522 332 508 314T481 292T458 288Q439 288 427 299T415 328Q415 374 465 391Q454 404 425 404Q412 404 406 402Q368 386 350 336Q290 115 290 78Q290 50 306 38T341 26Q378 26 414 59T463 140Q466 150 469 151T485 153H489Q504 153 504 145Q504 144 502 134Q486 77 440 33T333 -11Q263 -11 227 52Q186 -10 133 -10H127Q78 -10 57 16T35 71Q35 103 54 123T99 143Q142 143 142 101Q142 81 130 66T107 46T94 41L91 40Q91 39 97 36T113 29T132 26Q168 26 194 71Q203 87 217 139T245 247T261 313Q266 340 266 352Q266 380 251 392T217 404Q177 404 142 372T93 290Q91 281 88 280T72 278H58Q52 284 52 289Z"/></defs><g stroke="currentColor" fill="currentColor" stroke-width="0" transform="scale(1,-1)"><g data-mml-node="math"><g data-mml-node="mfrac"><g data-mml-node="mrow" transform="translate(326.5,676)"><g data-mml-node="mi"><use data-c="1D451" xlink:href="#MJX-852-TEX-I-1D451"/></g><g data-mml-node="msub" transform="translate(520,0)"><g data-mml-node="mi"><use data-c="1D45D" xlink:href="#MJX-852-TEX-I-1D45D"/></g><g data-mml-node="mi" transform="translate(536,-150) scale(0.707)"><use data-c="1D456" xlink:href="#MJX-852-TEX-I-1D456"/></g></g></g><g data-mml-node="mrow" transform="translate(220,-686)"><g data-mml-node="mi"><use data-c="1D451" xlink:href="#MJX-852-TEX-I-1D451"/></g><g data-mml-node="msub" transform="translate(520,0)"><g data-mml-node="mi"><use data-c="1D464" xlink:href="#MJX-852-TEX-I-1D464"/></g><g data-mml-node="mi" transform="translate(749,-150) scale(0.707)"><use data-c="1D456" xlink:href="#MJX-852-TEX-I-1D456"/></g></g></g><rect width="1763" height="60" x="120" y="220"/></g><g data-mml-node="mo" transform="translate(2280.7,0)"><use data-c="3D" xlink:href="#MJX-852-TEX-N-3D"/></g><g data-mml-node="msub" transform="translate(3336.5,0)"><g data-mml-node="mi"><use data-c="1D465" xlink:href="#MJX-852-TEX-I-1D465"/></g><g data-mml-node="mi" transform="translate(605,-150) scale(0.707)"><use data-c="1D456" xlink:href="#MJX-852-TEX-I-1D456"/></g></g></g></g></svg></mjx-container></div></div></div></foreignObject><text x="110" y="89" fill="#CC0000" font-family="Helvetica" font-size="14px" text-anchor="middle">$$\frac{d...</text></switch></g><rect x="185" y="70" width="60" height="30" fill="none" stroke="none" transform="translate(0,85)scale(1,-1)translate(0,-85)" pointer-events="all"/><g transform="translate(-0.5 -0.5)"><switch><foreignObject pointer-events="none" width="100%" height="100%" requiredFeatures="http://www.w3.org/TR/SVG11/feature#Extensibility" style="overflow: visible; text-align: left;"><div xmlns="http://www.w3.org/1999/xhtml" style="display: flex; align-items: unsafe center; justify-content: unsafe center; width: 58px; height: 1px; padding-top: 85px; margin-left: 186px;"><div data-drawio-colors="color: #CC0000; " style="box-sizing: border-box; font-size: 0px; text-align: center;"><div style="display: inline-block; font-size: 14px; font-family: Helvetica; color: rgb(204, 0, 0); line-height: 1.2; pointer-events: all; white-space: normal; overflow-wrap: normal;"><mjx-container class="MathJax" jax="SVG" display="true"><svg xmlns="http://www.w3.org/2000/svg" width="8.198ex" height="5.09ex" role="img" focusable="false" viewBox="0 -1370 3623.5 2250" xmlns:xlink="http://www.w3.org/1999/xlink" style="vertical-align: -1.991ex;"><defs><path id="MJX-853-TEX-I-1D451" d="M366 683Q367 683 438 688T511 694Q523 694 523 686Q523 679 450 384T375 83T374 68Q374 26 402 26Q411 27 422 35Q443 55 463 131Q469 151 473 152Q475 153 483 153H487H491Q506 153 506 145Q506 140 503 129Q490 79 473 48T445 8T417 -8Q409 -10 393 -10Q359 -10 336 5T306 36L300 51Q299 52 296 50Q294 48 292 46Q233 -10 172 -10Q117 -10 75 30T33 157Q33 205 53 255T101 341Q148 398 195 420T280 442Q336 442 364 400Q369 394 369 396Q370 400 396 505T424 616Q424 629 417 632T378 637H357Q351 643 351 645T353 664Q358 683 366 683ZM352 326Q329 405 277 405Q242 405 210 374T160 293Q131 214 119 129Q119 126 119 118T118 106Q118 61 136 44T179 26Q233 26 290 98L298 109L352 326Z"/><path id="MJX-853-TEX-I-1D460" d="M131 289Q131 321 147 354T203 415T300 442Q362 442 390 415T419 355Q419 323 402 308T364 292Q351 292 340 300T328 326Q328 342 337 354T354 372T367 378Q368 378 368 379Q368 382 361 388T336 399T297 405Q249 405 227 379T204 326Q204 301 223 291T278 274T330 259Q396 230 396 163Q396 135 385 107T352 51T289 7T195 -10Q118 -10 86 19T53 87Q53 126 74 143T118 160Q133 160 146 151T160 120Q160 94 142 76T111 58Q109 57 108 57T107 55Q108 52 115 47T146 34T201 27Q237 27 263 38T301 66T318 97T323 122Q323 150 302 164T254 181T195 196T148 231Q131 256 131 289Z"/><path id="MJX-853-TEX-I-1D45D" d="M23 287Q24 290 25 295T30 317T40 348T55 381T75 411T101 433T134 442Q209 442 230 378L240 387Q302 442 358 442Q423 442 460 395T497 281Q497 173 421 82T249 -10Q227 -10 210 -4Q199 1 187 11T168 28L161 36Q160 35 139 -51T118 -138Q118 -144 126 -145T163 -148H188Q194 -155 194 -157T191 -175Q188 -187 185 -190T172 -194Q170 -194 161 -194T127 -193T65 -192Q-5 -192 -24 -194H-32Q-39 -187 -39 -183Q-37 -156 -26 -148H-6Q28 -147 33 -136Q36 -130 94 103T155 350Q156 355 156 364Q156 405 131 405Q109 405 94 377T71 316T59 280Q57 278 43 278H29Q23 284 23 287ZM178 102Q200 26 252 26Q282 26 310 49T356 107Q374 141 392 215T411 325V331Q411 405 350 405Q339 405 328 402T306 393T286 380T269 365T254 350T243 336T235 326L232 322Q232 321 229 308T218 264T204 212Q178 106 178 102Z"/><path id="MJX-853-TEX-I-1D456" d="M184 600Q184 624 203 642T247 661Q265 661 277 649T290 619Q290 596 270 577T226 557Q211 557 198 567T184 600ZM21 287Q21 295 30 318T54 369T98 420T158 442Q197 442 223 419T250 357Q250 340 236 301T196 196T154 83Q149 61 149 51Q149 26 166 26Q175 26 185 29T208 43T235 78T260 137Q263 149 265 151T282 153Q302 153 302 143Q302 135 293 112T268 61T223 11T161 -11Q129 -11 102 10T74 74Q74 91 79 106T122 220Q160 321 166 341T173 380Q173 404 156 404H154Q124 404 99 371T61 287Q60 286 59 284T58 281T56 279T53 278T49 278T41 278H27Q21 284 21 287Z"/><path id="MJX-853-TEX-N-3D" d="M56 347Q56 360 70 367H707Q722 359 722 347Q722 336 708 328L390 327H72Q56 332 56 347ZM56 153Q56 168 72 173H708Q722 163 722 153Q722 140 707 133H70Q56 140 56 153Z"/><path id="MJX-853-TEX-N-31" d="M213 578L200 573Q186 568 160 563T102 556H83V602H102Q149 604 189 617T245 641T273 663Q275 666 285 666Q294 666 302 660V361L303 61Q310 54 315 52T339 48T401 46H427V0H416Q395 3 257 3Q121 3 100 0H88V46H114Q136 46 152 46T177 47T193 50T201 52T207 57T213 61V578Z"/></defs><g stroke="currentColor" fill="currentColor" stroke-width="0" transform="scale(1,-1)"><g data-mml-node="math"><g data-mml-node="mfrac"><g data-mml-node="mrow" transform="translate(400.5,676)"><g data-mml-node="mi"><use data-c="1D451" xlink:href="#MJX-853-TEX-I-1D451"/></g><g data-mml-node="mi" transform="translate(520,0)"><use data-c="1D460" xlink:href="#MJX-853-TEX-I-1D460"/></g></g><g data-mml-node="mrow" transform="translate(220,-686)"><g data-mml-node="mi"><use data-c="1D451" xlink:href="#MJX-853-TEX-I-1D451"/></g><g data-mml-node="msub" transform="translate(520,0)"><g data-mml-node="mi"><use data-c="1D45D" xlink:href="#MJX-853-TEX-I-1D45D"/></g><g data-mml-node="mi" transform="translate(536,-150) scale(0.707)"><use data-c="1D456" xlink:href="#MJX-853-TEX-I-1D456"/></g></g></g><rect width="1550" height="60" x="120" y="220"/></g><g data-mml-node="mo" transform="translate(2067.7,0)"><use data-c="3D" xlink:href="#MJX-853-TEX-N-3D"/></g><g data-mml-node="mn" transform="translate(3123.5,0)"><use data-c="31" xlink:href="#MJX-853-TEX-N-31"/></g></g></g></svg></mjx-container></div></div></div></foreignObject><text x="215" y="89" fill="#CC0000" font-family="Helvetica" font-size="14px" text-anchor="middle">$$\frac{d...</text></switch></g><rect x="291" y="70" width="120" height="30" fill="none" stroke="none" transform="translate(0,85)scale(1,-1)translate(0,-85)" pointer-events="all"/><g transform="translate(-0.5 -0.5)"><switch><foreignObject pointer-events="none" width="100%" height="100%" requiredFeatures="http://www.w3.org/TR/SVG11/feature#Extensibility" style="overflow: visible; text-align: left;"><div xmlns="http://www.w3.org/1999/xhtml" style="display: flex; align-items: unsafe center; justify-content: unsafe center; width: 118px; height: 1px; padding-top: 85px; margin-left: 292px;"><div data-drawio-colors="color: #CC0000; " style="box-sizing: border-box; font-size: 0px; text-align: center;"><div style="display: inline-block; font-size: 14px; font-family: Helvetica; color: rgb(204, 0, 0); line-height: 1.2; pointer-events: all; white-space: normal; overflow-wrap: normal;"><mjx-container class="MathJax" jax="SVG" display="true"><svg xmlns="http://www.w3.org/2000/svg" width="20.364ex" height="4.674ex" role="img" focusable="false" viewBox="0 -1370 9001 2066" xmlns:xlink="http://www.w3.org/1999/xlink" style="vertical-align: -1.575ex;"><defs><path id="MJX-854-TEX-I-1D451" d="M366 683Q367 683 438 688T511 694Q523 694 523 686Q523 679 450 384T375 83T374 68Q374 26 402 26Q411 27 422 35Q443 55 463 131Q469 151 473 152Q475 153 483 153H487H491Q506 153 506 145Q506 140 503 129Q490 79 473 48T445 8T417 -8Q409 -10 393 -10Q359 -10 336 5T306 36L300 51Q299 52 296 50Q294 48 292 46Q233 -10 172 -10Q117 -10 75 30T33 157Q33 205 53 255T101 341Q148 398 195 420T280 442Q336 442 364 400Q369 394 369 396Q370 400 396 505T424 616Q424 629 417 632T378 637H357Q351 643 351 645T353 664Q358 683 366 683ZM352 326Q329 405 277 405Q242 405 210 374T160 293Q131 214 119 129Q119 126 119 118T118 106Q118 61 136 44T179 26Q233 26 290 98L298 109L352 326Z"/><path id="MJX-854-TEX-I-1D70E" d="M184 -11Q116 -11 74 34T31 147Q31 247 104 333T274 430Q275 431 414 431H552Q553 430 555 429T559 427T562 425T565 422T567 420T569 416T570 412T571 407T572 401Q572 357 507 357Q500 357 490 357T476 358H416L421 348Q439 310 439 263Q439 153 359 71T184 -11ZM361 278Q361 358 276 358Q152 358 115 184Q114 180 114 178Q106 141 106 117Q106 67 131 47T188 26Q242 26 287 73Q316 103 334 153T356 233T361 278Z"/><path id="MJX-854-TEX-I-1D460" d="M131 289Q131 321 147 354T203 415T300 442Q362 442 390 415T419 355Q419 323 402 308T364 292Q351 292 340 300T328 326Q328 342 337 354T354 372T367 378Q368 378 368 379Q368 382 361 388T336 399T297 405Q249 405 227 379T204 326Q204 301 223 291T278 274T330 259Q396 230 396 163Q396 135 385 107T352 51T289 7T195 -10Q118 -10 86 19T53 87Q53 126 74 143T118 160Q133 160 146 151T160 120Q160 94 142 76T111 58Q109 57 108 57T107 55Q108 52 115 47T146 34T201 27Q237 27 263 38T301 66T318 97T323 122Q323 150 302 164T254 181T195 196T148 231Q131 256 131 289Z"/><path id="MJX-854-TEX-N-3D" d="M56 347Q56 360 70 367H707Q722 359 722 347Q722 336 708 328L390 327H72Q56 332 56 347ZM56 153Q56 168 72 173H708Q722 163 722 153Q722 140 707 133H70Q56 140 56 153Z"/><path id="MJX-854-TEX-N-28" d="M94 250Q94 319 104 381T127 488T164 576T202 643T244 695T277 729T302 750H315H319Q333 750 333 741Q333 738 316 720T275 667T226 581T184 443T167 250T184 58T225 -81T274 -167T316 -220T333 -241Q333 -250 318 -250H315H302L274 -226Q180 -141 137 -14T94 250Z"/><path id="MJX-854-TEX-N-29" d="M60 749L64 750Q69 750 74 750H86L114 726Q208 641 251 514T294 250Q294 182 284 119T261 12T224 -76T186 -143T145 -194T113 -227T90 -246Q87 -249 86 -250H74Q66 -250 63 -250T58 -247T55 -238Q56 -237 66 -225Q221 -64 221 250T66 725Q56 737 55 738Q55 746 60 749Z"/><path id="MJX-854-TEX-N-31" d="M213 578L200 573Q186 568 160 563T102 556H83V602H102Q149 604 189 617T245 641T273 663Q275 666 285 666Q294 666 302 660V361L303 61Q310 54 315 52T339 48T401 46H427V0H416Q395 3 257 3Q121 3 100 0H88V46H114Q136 46 152 46T177 47T193 50T201 52T207 57T213 61V578Z"/><path id="MJX-854-TEX-N-2212" d="M84 237T84 250T98 270H679Q694 262 694 250T679 230H98Q84 237 84 250Z"/></defs><g stroke="currentColor" fill="currentColor" stroke-width="0" transform="scale(1,-1)"><g data-mml-node="math"><g data-mml-node="mfrac"><g data-mml-node="mrow" transform="translate(220,676)"><g data-mml-node="mi"><use data-c="1D451" xlink:href="#MJX-854-TEX-I-1D451"/></g><g data-mml-node="mi" transform="translate(520,0)"><use data-c="1D70E" xlink:href="#MJX-854-TEX-I-1D70E"/></g></g><g data-mml-node="mrow" transform="translate(271,-686)"><g data-mml-node="mi"><use data-c="1D451" xlink:href="#MJX-854-TEX-I-1D451"/></g><g data-mml-node="mi" transform="translate(520,0)"><use data-c="1D460" xlink:href="#MJX-854-TEX-I-1D460"/></g></g><rect width="1291" height="60" x="120" y="220"/></g><g data-mml-node="mo" transform="translate(1808.8,0)"><use data-c="3D" xlink:href="#MJX-854-TEX-N-3D"/></g><g data-mml-node="mi" transform="translate(2864.6,0)"><use data-c="1D70E" xlink:href="#MJX-854-TEX-I-1D70E"/></g><g data-mml-node="mo" transform="translate(3435.6,0)"><use data-c="28" xlink:href="#MJX-854-TEX-N-28"/></g><g data-mml-node="mi" transform="translate(3824.6,0)"><use data-c="1D460" xlink:href="#MJX-854-TEX-I-1D460"/></g><g data-mml-node="mo" transform="translate(4293.6,0)"><use data-c="29" xlink:href="#MJX-854-TEX-N-29"/></g><g data-mml-node="mo" transform="translate(4682.6,0)"><use data-c="28" xlink:href="#MJX-854-TEX-N-28"/></g><g data-mml-node="mn" transform="translate(5071.6,0)"><use data-c="31" xlink:href="#MJX-854-TEX-N-31"/></g><g data-mml-node="mo" transform="translate(5793.8,0)"><use data-c="2212" xlink:href="#MJX-854-TEX-N-2212"/></g><g data-mml-node="mi" transform="translate(6794,0)"><use data-c="1D70E" xlink:href="#MJX-854-TEX-I-1D70E"/></g><g data-mml-node="mo" transform="translate(7365,0)"><use data-c="28" xlink:href="#MJX-854-TEX-N-28"/></g><g data-mml-node="mi" transform="translate(7754,0)"><use data-c="1D460" xlink:href="#MJX-854-TEX-I-1D460"/></g><g data-mml-node="mo" transform="translate(8223,0)"><use data-c="29" xlink:href="#MJX-854-TEX-N-29"/></g><g data-mml-node="mo" transform="translate(8612,0)"><use data-c="29" xlink:href="#MJX-854-TEX-N-29"/></g></g></g></svg></mjx-container></div></div></div></foreignObject><text x="351" y="89" fill="#CC0000" font-family="Helvetica" font-size="14px" text-anchor="middle">$$\frac{d\sigma}{...</text></switch></g><rect x="451" y="70" width="120" height="30" fill="none" stroke="none" transform="translate(0,85)scale(1,-1)translate(0,-85)" pointer-events="all"/><g transform="translate(-0.5 -0.5)"><switch><foreignObject pointer-events="none" width="100%" height="100%" requiredFeatures="http://www.w3.org/TR/SVG11/feature#Extensibility" style="overflow: visible; text-align: left;"><div xmlns="http://www.w3.org/1999/xhtml" style="display: flex; align-items: unsafe center; justify-content: unsafe center; width: 118px; height: 1px; padding-top: 85px; margin-left: 452px;"><div data-drawio-colors="color: #CC0000; " style="box-sizing: border-box; font-size: 0px; text-align: center;"><div style="display: inline-block; font-size: 14px; font-family: Helvetica; color: rgb(204, 0, 0); line-height: 1.2; pointer-events: all; white-space: normal; overflow-wrap: normal;"><mjx-container class="MathJax" jax="SVG" display="true"><svg xmlns="http://www.w3.org/2000/svg" width="11.421ex" height="5.305ex" role="img" focusable="false" viewBox="0 -1370 5048 2345" xmlns:xlink="http://www.w3.org/1999/xlink" style="vertical-align: -2.206ex;"><defs><path id="MJX-855-TEX-I-1D451" d="M366 683Q367 683 438 688T511 694Q523 694 523 686Q523 679 450 384T375 83T374 68Q374 26 402 26Q411 27 422 35Q443 55 463 131Q469 151 473 152Q475 153 483 153H487H491Q506 153 506 145Q506 140 503 129Q490 79 473 48T445 8T417 -8Q409 -10 393 -10Q359 -10 336 5T306 36L300 51Q299 52 296 50Q294 48 292 46Q233 -10 172 -10Q117 -10 75 30T33 157Q33 205 53 255T101 341Q148 398 195 420T280 442Q336 442 364 400Q369 394 369 396Q370 400 396 505T424 616Q424 629 417 632T378 637H357Q351 643 351 645T353 664Q358 683 366 683ZM352 326Q329 405 277 405Q242 405 210 374T160 293Q131 214 119 129Q119 126 119 118T118 106Q118 61 136 44T179 26Q233 26 290 98L298 109L352 326Z"/><path id="MJX-855-TEX-I-1D43F" d="M228 637Q194 637 192 641Q191 643 191 649Q191 673 202 682Q204 683 217 683Q271 680 344 680Q485 680 506 683H518Q524 677 524 674T522 656Q517 641 513 637H475Q406 636 394 628Q387 624 380 600T313 336Q297 271 279 198T252 88L243 52Q243 48 252 48T311 46H328Q360 46 379 47T428 54T478 72T522 106T564 161Q580 191 594 228T611 270Q616 273 628 273H641Q647 264 647 262T627 203T583 83T557 9Q555 4 553 3T537 0T494 -1Q483 -1 418 -1T294 0H116Q32 0 32 10Q32 17 34 24Q39 43 44 45Q48 46 59 46H65Q92 46 125 49Q139 52 144 61Q147 65 216 339T285 628Q285 635 228 637Z"/><path id="MJX-855-TEX-I-1D466" d="M21 287Q21 301 36 335T84 406T158 442Q199 442 224 419T250 355Q248 336 247 334Q247 331 231 288T198 191T182 105Q182 62 196 45T238 27Q261 27 281 38T312 61T339 94Q339 95 344 114T358 173T377 247Q415 397 419 404Q432 431 462 431Q475 431 483 424T494 412T496 403Q496 390 447 193T391 -23Q363 -106 294 -155T156 -205Q111 -205 77 -183T43 -117Q43 -95 50 -80T69 -58T89 -48T106 -45Q150 -45 150 -87Q150 -107 138 -122T115 -142T102 -147L99 -148Q101 -153 118 -160T152 -167H160Q177 -167 186 -165Q219 -156 247 -127T290 -65T313 -9T321 21L315 17Q309 13 296 6T270 -6Q250 -11 231 -11Q185 -11 150 11T104 82Q103 89 103 113Q103 170 138 262T173 379Q173 380 173 381Q173 390 173 393T169 400T158 404H154Q131 404 112 385T82 344T65 302T57 280Q55 278 41 278H27Q21 284 21 287Z"/><path id="MJX-855-TEX-N-5E" d="M112 560L249 694L257 686Q387 562 387 560L361 531Q359 532 303 581L250 627L195 580Q182 569 169 557T148 538L140 532Q138 530 125 546L112 560Z"/><path id="MJX-855-TEX-N-3D" d="M56 347Q56 360 70 367H707Q722 359 722 347Q722 336 708 328L390 327H72Q56 332 56 347ZM56 153Q56 168 72 173H708Q722 163 722 153Q722 140 707 133H70Q56 140 56 153Z"/><path id="MJX-855-TEX-N-2212" d="M84 237T84 250T98 270H679Q694 262 694 250T679 230H98Q84 237 84 250Z"/><path id="MJX-855-TEX-I-1D461" d="M26 385Q19 392 19 395Q19 399 22 411T27 425Q29 430 36 430T87 431H140L159 511Q162 522 166 540T173 566T179 586T187 603T197 615T211 624T229 626Q247 625 254 615T261 596Q261 589 252 549T232 470L222 433Q222 431 272 431H323Q330 424 330 420Q330 398 317 385H210L174 240Q135 80 135 68Q135 26 162 26Q197 26 230 60T283 144Q285 150 288 151T303 153H307Q322 153 322 145Q322 142 319 133Q314 117 301 95T267 48T216 6T155 -11Q125 -11 98 4T59 56Q57 64 57 83V101L92 241Q127 382 128 383Q128 385 77 385H26Z"/></defs><g stroke="currentColor" fill="currentColor" stroke-width="0" transform="scale(1,-1)"><g data-mml-node="math"><g data-mml-node="mfrac"><g data-mml-node="mrow" transform="translate(220,676)"><g data-mml-node="mi"><use data-c="1D451" xlink:href="#MJX-855-TEX-I-1D451"/></g><g data-mml-node="mi" transform="translate(520,0)"><use data-c="1D43F" xlink:href="#MJX-855-TEX-I-1D43F"/></g></g><g data-mml-node="mrow" transform="translate(315.5,-770)"><g data-mml-node="mi"><use data-c="1D451" xlink:href="#MJX-855-TEX-I-1D451"/></g><g data-mml-node="TeXAtom" data-mjx-texclass="ORD" transform="translate(520,0)"><g data-mml-node="mover"><g data-mml-node="mi"><use data-c="1D466" xlink:href="#MJX-855-TEX-I-1D466"/></g><g data-mml-node="mo" transform="translate(300.6,16) translate(-250 0)"><use data-c="5E" xlink:href="#MJX-855-TEX-N-5E"/></g></g></g></g><rect width="1401" height="60" x="120" y="220"/></g><g data-mml-node="mo" transform="translate(1918.8,0)"><use data-c="3D" xlink:href="#MJX-855-TEX-N-3D"/></g><g data-mml-node="TeXAtom" data-mjx-texclass="ORD" transform="translate(2974.6,0)"><g data-mml-node="mover"><g data-mml-node="mi"><use data-c="1D466" xlink:href="#MJX-855-TEX-I-1D466"/></g><g data-mml-node="mo" transform="translate(300.6,16) translate(-250 0)"><use data-c="5E" xlink:href="#MJX-855-TEX-N-5E"/></g></g></g><g data-mml-node="mo" transform="translate(3686.8,0)"><use data-c="2212" xlink:href="#MJX-855-TEX-N-2212"/></g><g data-mml-node="mi" transform="translate(4687,0)"><use data-c="1D461" xlink:href="#MJX-855-TEX-I-1D461"/></g></g></g></svg></mjx-container></div></div></div></foreignObject><text x="511" y="89" fill="#CC0000" font-family="Helvetica" font-size="14px" text-anchor="middle">$$\frac{dL}{d\hat...</text></switch></g><rect x="215" y="140" width="60" height="30" fill="none" stroke="none" transform="translate(0,155)scale(1,-1)translate(0,-155)" pointer-events="all"/><g transform="translate(-0.5 -0.5)"><switch><foreignObject pointer-events="none" width="100%" height="100%" requiredFeatures="http://www.w3.org/TR/SVG11/feature#Extensibility" style="overflow: visible; text-align: left;"><div xmlns="http://www.w3.org/1999/xhtml" style="display: flex; align-items: unsafe center; justify-content: unsafe center; width: 58px; height: 1px; padding-top: 155px; margin-left: 216px;"><div data-drawio-colors="color: #0066B3; " style="box-sizing: border-box; font-size: 0px; text-align: center;"><div style="display: inline-block; font-size: 14px; font-family: Helvetica; color: rgb(0, 102, 179); line-height: 1.2; pointer-events: all; white-space: normal; overflow-wrap: normal;"><mjx-container class="MathJax" jax="SVG"><svg xmlns="http://www.w3.org/2000/svg" width="9.462ex" height="2.36ex" role="img" focusable="false" viewBox="0 -750 4182.1 1043.1" xmlns:xlink="http://www.w3.org/1999/xlink" style="vertical-align: -0.663ex;"><defs><path id="MJX-856-TEX-I-1D460" d="M131 289Q131 321 147 354T203 415T300 442Q362 442 390 415T419 355Q419 323 402 308T364 292Q351 292 340 300T328 326Q328 342 337 354T354 372T367 378Q368 378 368 379Q368 382 361 388T336 399T297 405Q249 405 227 379T204 326Q204 301 223 291T278 274T330 259Q396 230 396 163Q396 135 385 107T352 51T289 7T195 -10Q118 -10 86 19T53 87Q53 126 74 143T118 160Q133 160 146 151T160 120Q160 94 142 76T111 58Q109 57 108 57T107 55Q108 52 115 47T146 34T201 27Q237 27 263 38T301 66T318 97T323 122Q323 150 302 164T254 181T195 196T148 231Q131 256 131 289Z"/><path id="MJX-856-TEX-N-3D" d="M56 347Q56 360 70 367H707Q722 359 722 347Q722 336 708 328L390 327H72Q56 332 56 347ZM56 153Q56 168 72 173H708Q722 163 722 153Q722 140 707 133H70Q56 140 56 153Z"/><path id="MJX-856-TEX-SO-2211" d="M61 748Q64 750 489 750H913L954 640Q965 609 976 579T993 533T999 516H979L959 517Q936 579 886 621T777 682Q724 700 655 705T436 710H319Q183 710 183 709Q186 706 348 484T511 259Q517 250 513 244L490 216Q466 188 420 134T330 27L149 -187Q149 -188 362 -188Q388 -188 436 -188T506 -189Q679 -189 778 -162T936 -43Q946 -27 959 6H999L913 -249L489 -250Q65 -250 62 -248Q56 -246 56 -239Q56 -234 118 -161Q186 -81 245 -11L428 206Q428 207 242 462L57 717L56 728Q56 744 61 748Z"/><path id="MJX-856-TEX-I-1D456" d="M184 600Q184 624 203 642T247 661Q265 661 277 649T290 619Q290 596 270 577T226 557Q211 557 198 567T184 600ZM21 287Q21 295 30 318T54 369T98 420T158 442Q197 442 223 419T250 357Q250 340 236 301T196 196T154 83Q149 61 149 51Q149 26 166 26Q175 26 185 29T208 43T235 78T260 137Q263 149 265 151T282 153Q302 153 302 143Q302 135 293 112T268 61T223 11T161 -11Q129 -11 102 10T74 74Q74 91 79 106T122 220Q160 321 166 341T173 380Q173 404 156 404H154Q124 404 99 371T61 287Q60 286 59 284T58 281T56 279T53 278T49 278T41 278H27Q21 284 21 287Z"/><path id="MJX-856-TEX-I-1D45D" d="M23 287Q24 290 25 295T30 317T40 348T55 381T75 411T101 433T134 442Q209 442 230 378L240 387Q302 442 358 442Q423 442 460 395T497 281Q497 173 421 82T249 -10Q227 -10 210 -4Q199 1 187 11T168 28L161 36Q160 35 139 -51T118 -138Q118 -144 126 -145T163 -148H188Q194 -155 194 -157T191 -175Q188 -187 185 -190T172 -194Q170 -194 161 -194T127 -193T65 -192Q-5 -192 -24 -194H-32Q-39 -187 -39 -183Q-37 -156 -26 -148H-6Q28 -147 33 -136Q36 -130 94 103T155 350Q156 355 156 364Q156 405 131 405Q109 405 94 377T71 316T59 280Q57 278 43 278H29Q23 284 23 287ZM178 102Q200 26 252 26Q282 26 310 49T356 107Q374 141 392 215T411 325V331Q411 405 350 405Q339 405 328 402T306 393T286 380T269 365T254 350T243 336T235 326L232 322Q232 321 229 308T218 264T204 212Q178 106 178 102Z"/></defs><g stroke="currentColor" fill="currentColor" stroke-width="0" transform="scale(1,-1)"><g data-mml-node="math"><g data-mml-node="mi"><use data-c="1D460" xlink:href="#MJX-856-TEX-I-1D460"/></g><g data-mml-node="mo" transform="translate(746.8,0)"><use data-c="3D" xlink:href="#MJX-856-TEX-N-3D"/></g><g data-mml-node="munder" transform="translate(1802.6,0)"><g data-mml-node="mo"><use data-c="2211" xlink:href="#MJX-856-TEX-SO-2211"/></g><g data-mml-node="mi" transform="translate(1089,-285.4) scale(0.707)"><use data-c="1D456" xlink:href="#MJX-856-TEX-I-1D456"/></g></g><g data-mml-node="msub" transform="translate(3352.2,0)"><g data-mml-node="mi"><use data-c="1D45D" xlink:href="#MJX-856-TEX-I-1D45D"/></g><g data-mml-node="mi" transform="translate(536,-150) scale(0.707)"><use data-c="1D456" xlink:href="#MJX-856-TEX-I-1D456"/></g></g></g></g></svg></mjx-container></div></div></div></foreignObject><text x="245" y="159" fill="#0066B3" font-family="Helvetica" font-size="14px" text-anchor="middle">\(s=\sum_...</text></switch></g><rect x="335" y="140" width="60" height="30" fill="none" stroke="none" transform="translate(0,155)scale(1,-1)translate(0,-155)" pointer-events="all"/><g transform="translate(-0.5 -0.5)"><switch><foreignObject pointer-events="none" width="100%" height="100%" requiredFeatures="http://www.w3.org/TR/SVG11/feature#Extensibility" style="overflow: visible; text-align: left;"><div xmlns="http://www.w3.org/1999/xhtml" style="display: flex; align-items: unsafe center; justify-content: unsafe center; width: 58px; height: 1px; padding-top: 155px; margin-left: 336px;"><div data-drawio-colors="color: #0066B3; " style="box-sizing: border-box; font-size: 0px; text-align: center;"><div style="display: inline-block; font-size: 14px; font-family: Helvetica; color: rgb(0, 102, 179); line-height: 1.2; pointer-events: all; white-space: normal; overflow-wrap: normal;"><mjx-container class="MathJax" jax="SVG"><svg xmlns="http://www.w3.org/2000/svg" width="8.239ex" height="2.398ex" role="img" focusable="false" viewBox="0 -810 3641.6 1060" xmlns:xlink="http://www.w3.org/1999/xlink" style="vertical-align: -0.566ex;"><defs><path id="MJX-857-TEX-I-1D466" d="M21 287Q21 301 36 335T84 406T158 442Q199 442 224 419T250 355Q248 336 247 334Q247 331 231 288T198 191T182 105Q182 62 196 45T238 27Q261 27 281 38T312 61T339 94Q339 95 344 114T358 173T377 247Q415 397 419 404Q432 431 462 431Q475 431 483 424T494 412T496 403Q496 390 447 193T391 -23Q363 -106 294 -155T156 -205Q111 -205 77 -183T43 -117Q43 -95 50 -80T69 -58T89 -48T106 -45Q150 -45 150 -87Q150 -107 138 -122T115 -142T102 -147L99 -148Q101 -153 118 -160T152 -167H160Q177 -167 186 -165Q219 -156 247 -127T290 -65T313 -9T321 21L315 17Q309 13 296 6T270 -6Q250 -11 231 -11Q185 -11 150 11T104 82Q103 89 103 113Q103 170 138 262T173 379Q173 380 173 381Q173 390 173 393T169 400T158 404H154Q131 404 112 385T82 344T65 302T57 280Q55 278 41 278H27Q21 284 21 287Z"/><path id="MJX-857-TEX-N-5E" d="M112 560L249 694L257 686Q387 562 387 560L361 531Q359 532 303 581L250 627L195 580Q182 569 169 557T148 538L140 532Q138 530 125 546L112 560Z"/><path id="MJX-857-TEX-N-3D" d="M56 347Q56 360 70 367H707Q722 359 722 347Q722 336 708 328L390 327H72Q56 332 56 347ZM56 153Q56 168 72 173H708Q722 163 722 153Q722 140 707 133H70Q56 140 56 153Z"/><path id="MJX-857-TEX-I-1D70E" d="M184 -11Q116 -11 74 34T31 147Q31 247 104 333T274 430Q275 431 414 431H552Q553 430 555 429T559 427T562 425T565 422T567 420T569 416T570 412T571 407T572 401Q572 357 507 357Q500 357 490 357T476 358H416L421 348Q439 310 439 263Q439 153 359 71T184 -11ZM361 278Q361 358 276 358Q152 358 115 184Q114 180 114 178Q106 141 106 117Q106 67 131 47T188 26Q242 26 287 73Q316 103 334 153T356 233T361 278Z"/><path id="MJX-857-TEX-N-28" d="M94 250Q94 319 104 381T127 488T164 576T202 643T244 695T277 729T302 750H315H319Q333 750 333 741Q333 738 316 720T275 667T226 581T184 443T167 250T184 58T225 -81T274 -167T316 -220T333 -241Q333 -250 318 -250H315H302L274 -226Q180 -141 137 -14T94 250Z"/><path id="MJX-857-TEX-I-1D460" d="M131 289Q131 321 147 354T203 415T300 442Q362 442 390 415T419 355Q419 323 402 308T364 292Q351 292 340 300T328 326Q328 342 337 354T354 372T367 378Q368 378 368 379Q368 382 361 388T336 399T297 405Q249 405 227 379T204 326Q204 301 223 291T278 274T330 259Q396 230 396 163Q396 135 385 107T352 51T289 7T195 -10Q118 -10 86 19T53 87Q53 126 74 143T118 160Q133 160 146 151T160 120Q160 94 142 76T111 58Q109 57 108 57T107 55Q108 52 115 47T146 34T201 27Q237 27 263 38T301 66T318 97T323 122Q323 150 302 164T254 181T195 196T148 231Q131 256 131 289Z"/><path id="MJX-857-TEX-N-29" d="M60 749L64 750Q69 750 74 750H86L114 726Q208 641 251 514T294 250Q294 182 284 119T261 12T224 -76T186 -143T145 -194T113 -227T90 -246Q87 -249 86 -250H74Q66 -250 63 -250T58 -247T55 -238Q56 -237 66 -225Q221 -64 221 250T66 725Q56 737 55 738Q55 746 60 749Z"/></defs><g stroke="currentColor" fill="currentColor" stroke-width="0" transform="scale(1,-1)"><g data-mml-node="math"><g data-mml-node="TeXAtom" data-mjx-texclass="ORD"><g data-mml-node="mover"><g data-mml-node="mi"><use data-c="1D466" xlink:href="#MJX-857-TEX-I-1D466"/></g><g data-mml-node="mo" transform="translate(300.6,16) translate(-250 0)"><use data-c="5E" xlink:href="#MJX-857-TEX-N-5E"/></g></g></g><g data-mml-node="mo" transform="translate(767.8,0)"><use data-c="3D" xlink:href="#MJX-857-TEX-N-3D"/></g><g data-mml-node="mi" transform="translate(1823.6,0)"><use data-c="1D70E" xlink:href="#MJX-857-TEX-I-1D70E"/></g><g data-mml-node="mo" transform="translate(2394.6,0)"><use data-c="28" xlink:href="#MJX-857-TEX-N-28"/></g><g data-mml-node="mi" transform="translate(2783.6,0)"><use data-c="1D460" xlink:href="#MJX-857-TEX-I-1D460"/></g><g data-mml-node="mo" transform="translate(3252.6,0)"><use data-c="29" xlink:href="#MJX-857-TEX-N-29"/></g></g></g></svg></mjx-container></div></div></div></foreignObject><text x="365" y="159" fill="#0066B3" font-family="Helvetica" font-size="14px" text-anchor="middle">\(\hat{y}...</text></switch></g><rect x="481" y="140" width="60" height="30" fill="none" stroke="none" transform="translate(0,155)scale(1,-1)translate(0,-155)" pointer-events="all"/><g transform="translate(-0.5 -0.5)"><switch><foreignObject pointer-events="none" width="100%" height="100%" requiredFeatures="http://www.w3.org/TR/SVG11/feature#Extensibility" style="overflow: visible; text-align: left;"><div xmlns="http://www.w3.org/1999/xhtml" style="display: flex; align-items: unsafe center; justify-content: unsafe center; width: 58px; height: 1px; padding-top: 155px; margin-left: 482px;"><div data-drawio-colors="color: #0066B3; " style="box-sizing: border-box; font-size: 0px; text-align: center;"><div style="display: inline-block; font-size: 14px; font-family: Helvetica; color: rgb(0, 102, 179); line-height: 1.2; pointer-events: all; white-space: normal; overflow-wrap: normal;"><mjx-container class="MathJax" jax="SVG"><svg xmlns="http://www.w3.org/2000/svg" width="18.484ex" height="2.737ex" role="img" focusable="false" viewBox="0 -864.9 8169.8 1209.9" xmlns:xlink="http://www.w3.org/1999/xlink" style="vertical-align: -0.781ex;"><defs><path id="MJX-858-TEX-I-1D43F" d="M228 637Q194 637 192 641Q191 643 191 649Q191 673 202 682Q204 683 217 683Q271 680 344 680Q485 680 506 683H518Q524 677 524 674T522 656Q517 641 513 637H475Q406 636 394 628Q387 624 380 600T313 336Q297 271 279 198T252 88L243 52Q243 48 252 48T311 46H328Q360 46 379 47T428 54T478 72T522 106T564 161Q580 191 594 228T611 270Q616 273 628 273H641Q647 264 647 262T627 203T583 83T557 9Q555 4 553 3T537 0T494 -1Q483 -1 418 -1T294 0H116Q32 0 32 10Q32 17 34 24Q39 43 44 45Q48 46 59 46H65Q92 46 125 49Q139 52 144 61Q147 65 216 339T285 628Q285 635 228 637Z"/><path id="MJX-858-TEX-N-28" d="M94 250Q94 319 104 381T127 488T164 576T202 643T244 695T277 729T302 750H315H319Q333 750 333 741Q333 738 316 720T275 667T226 581T184 443T167 250T184 58T225 -81T274 -167T316 -220T333 -241Q333 -250 318 -250H315H302L274 -226Q180 -141 137 -14T94 250Z"/><path id="MJX-858-TEX-I-1D466" d="M21 287Q21 301 36 335T84 406T158 442Q199 442 224 419T250 355Q248 336 247 334Q247 331 231 288T198 191T182 105Q182 62 196 45T238 27Q261 27 281 38T312 61T339 94Q339 95 344 114T358 173T377 247Q415 397 419 404Q432 431 462 431Q475 431 483 424T494 412T496 403Q496 390 447 193T391 -23Q363 -106 294 -155T156 -205Q111 -205 77 -183T43 -117Q43 -95 50 -80T69 -58T89 -48T106 -45Q150 -45 150 -87Q150 -107 138 -122T115 -142T102 -147L99 -148Q101 -153 118 -160T152 -167H160Q177 -167 186 -165Q219 -156 247 -127T290 -65T313 -9T321 21L315 17Q309 13 296 6T270 -6Q250 -11 231 -11Q185 -11 150 11T104 82Q103 89 103 113Q103 170 138 262T173 379Q173 380 173 381Q173 390 173 393T169 400T158 404H154Q131 404 112 385T82 344T65 302T57 280Q55 278 41 278H27Q21 284 21 287Z"/><path id="MJX-858-TEX-N-5E" d="M112 560L249 694L257 686Q387 562 387 560L361 531Q359 532 303 581L250 627L195 580Q182 569 169 557T148 538L140 532Q138 530 125 546L112 560Z"/><path id="MJX-858-TEX-N-2C" d="M78 35T78 60T94 103T137 121Q165 121 187 96T210 8Q210 -27 201 -60T180 -117T154 -158T130 -185T117 -194Q113 -194 104 -185T95 -172Q95 -168 106 -156T131 -126T157 -76T173 -3V9L172 8Q170 7 167 6T161 3T152 1T140 0Q113 0 96 17Z"/><path id="MJX-858-TEX-I-1D461" d="M26 385Q19 392 19 395Q19 399 22 411T27 425Q29 430 36 430T87 431H140L159 511Q162 522 166 540T173 566T179 586T187 603T197 615T211 624T229 626Q247 625 254 615T261 596Q261 589 252 549T232 470L222 433Q222 431 272 431H323Q330 424 330 420Q330 398 317 385H210L174 240Q135 80 135 68Q135 26 162 26Q197 26 230 60T283 144Q285 150 288 151T303 153H307Q322 153 322 145Q322 142 319 133Q314 117 301 95T267 48T216 6T155 -11Q125 -11 98 4T59 56Q57 64 57 83V101L92 241Q127 382 128 383Q128 385 77 385H26Z"/><path id="MJX-858-TEX-N-29" d="M60 749L64 750Q69 750 74 750H86L114 726Q208 641 251 514T294 250Q294 182 284 119T261 12T224 -76T186 -143T145 -194T113 -227T90 -246Q87 -249 86 -250H74Q66 -250 63 -250T58 -247T55 -238Q56 -237 66 -225Q221 -64 221 250T66 725Q56 737 55 738Q55 746 60 749Z"/><path id="MJX-858-TEX-N-3D" d="M56 347Q56 360 70 367H707Q722 359 722 347Q722 336 708 328L390 327H72Q56 332 56 347ZM56 153Q56 168 72 173H708Q722 163 722 153Q722 140 707 133H70Q56 140 56 153Z"/><path id="MJX-858-TEX-N-31" d="M213 578L200 573Q186 568 160 563T102 556H83V602H102Q149 604 189 617T245 641T273 663Q275 666 285 666Q294 666 302 660V361L303 61Q310 54 315 52T339 48T401 46H427V0H416Q395 3 257 3Q121 3 100 0H88V46H114Q136 46 152 46T177 47T193 50T201 52T207 57T213 61V578Z"/><path id="MJX-858-TEX-N-32" d="M109 429Q82 429 66 447T50 491Q50 562 103 614T235 666Q326 666 387 610T449 465Q449 422 429 383T381 315T301 241Q265 210 201 149L142 93L218 92Q375 92 385 97Q392 99 409 186V189H449V186Q448 183 436 95T421 3V0H50V19V31Q50 38 56 46T86 81Q115 113 136 137Q145 147 170 174T204 211T233 244T261 278T284 308T305 340T320 369T333 401T340 431T343 464Q343 527 309 573T212 619Q179 619 154 602T119 569T109 550Q109 549 114 549Q132 549 151 535T170 489Q170 464 154 447T109 429Z"/><path id="MJX-858-TEX-N-2212" d="M84 237T84 250T98 270H679Q694 262 694 250T679 230H98Q84 237 84 250Z"/></defs><g stroke="currentColor" fill="currentColor" stroke-width="0" transform="scale(1,-1)"><g data-mml-node="math"><g data-mml-node="mi"><use data-c="1D43F" xlink:href="#MJX-858-TEX-I-1D43F"/></g><g data-mml-node="mo" transform="translate(681,0)"><use data-c="28" xlink:href="#MJX-858-TEX-N-28"/></g><g data-mml-node="TeXAtom" data-mjx-texclass="ORD" transform="translate(1070,0)"><g data-mml-node="mover"><g data-mml-node="mi"><use data-c="1D466" xlink:href="#MJX-858-TEX-I-1D466"/></g><g data-mml-node="mo" transform="translate(300.6,16) translate(-250 0)"><use data-c="5E" xlink:href="#MJX-858-TEX-N-5E"/></g></g></g><g data-mml-node="mo" transform="translate(1560,0)"><use data-c="2C" xlink:href="#MJX-858-TEX-N-2C"/></g><g data-mml-node="mi" transform="translate(2004.7,0)"><use data-c="1D461" xlink:href="#MJX-858-TEX-I-1D461"/></g><g data-mml-node="mo" transform="translate(2365.7,0)"><use data-c="29" xlink:href="#MJX-858-TEX-N-29"/></g><g data-mml-node="mo" transform="translate(3032.4,0)"><use data-c="3D" xlink:href="#MJX-858-TEX-N-3D"/></g><g data-mml-node="mfrac" transform="translate(4088.2,0)"><g data-mml-node="mn" transform="translate(220,394) scale(0.707)"><use data-c="31" xlink:href="#MJX-858-TEX-N-31"/></g><g data-mml-node="mn" transform="translate(220,-345) scale(0.707)"><use data-c="32" xlink:href="#MJX-858-TEX-N-32"/></g><rect width="553.6" height="60" x="120" y="220"/></g><g data-mml-node="mo" transform="translate(4881.8,0)"><use data-c="28" xlink:href="#MJX-858-TEX-N-28"/></g><g data-mml-node="mi" transform="translate(5270.8,0)"><use data-c="1D461" xlink:href="#MJX-858-TEX-I-1D461"/></g><g data-mml-node="mo" transform="translate(5854,0)"><use data-c="2212" xlink:href="#MJX-858-TEX-N-2212"/></g><g data-mml-node="TeXAtom" data-mjx-texclass="ORD" transform="translate(6854.2,0)"><g data-mml-node="mover"><g data-mml-node="mi"><use data-c="1D466" xlink:href="#MJX-858-TEX-I-1D466"/></g><g data-mml-node="mo" transform="translate(300.6,16) translate(-250 0)"><use data-c="5E" xlink:href="#MJX-858-TEX-N-5E"/></g></g></g><g data-mml-node="msup" transform="translate(7344.2,0)"><g data-mml-node="mo"><use data-c="29" xlink:href="#MJX-858-TEX-N-29"/></g><g data-mml-node="mn" transform="translate(422,363) scale(0.707)"><use data-c="32" xlink:href="#MJX-858-TEX-N-32"/></g></g></g></g></svg></mjx-container></div></div></div></foreignObject><text x="511" y="159" fill="#0066B3" font-family="Helvetica" font-size="14px" text-anchor="middle">\(L(\hat{...</text></switch></g><rect x="80" y="220" width="60" height="30" fill="none" stroke="none" transform="translate(0,235)scale(1,-1)translate(0,-235)" pointer-events="all"/><g transform="translate(-0.5 -0.5)"><switch><foreignObject pointer-events="none" width="100%" height="100%" requiredFeatures="http://www.w3.org/TR/SVG11/feature#Extensibility" style="overflow: visible; text-align: left;"><div xmlns="http://www.w3.org/1999/xhtml" style="display: flex; align-items: unsafe center; justify-content: unsafe center; width: 58px; height: 1px; padding-top: 235px; margin-left: 81px;"><div data-drawio-colors="color: #0066B3; " style="box-sizing: border-box; font-size: 0px; text-align: center;"><div style="display: inline-block; font-size: 14px; font-family: Helvetica; color: rgb(0, 102, 179); line-height: 1.2; pointer-events: all; white-space: normal; overflow-wrap: normal;"><mjx-container class="MathJax" jax="SVG"><svg xmlns="http://www.w3.org/2000/svg" width="9.288ex" height="1.758ex" role="img" focusable="false" viewBox="0 -583 4105.4 777" xmlns:xlink="http://www.w3.org/1999/xlink" style="vertical-align: -0.439ex;"><defs><path id="MJX-859-TEX-I-1D45D" d="M23 287Q24 290 25 295T30 317T40 348T55 381T75 411T101 433T134 442Q209 442 230 378L240 387Q302 442 358 442Q423 442 460 395T497 281Q497 173 421 82T249 -10Q227 -10 210 -4Q199 1 187 11T168 28L161 36Q160 35 139 -51T118 -138Q118 -144 126 -145T163 -148H188Q194 -155 194 -157T191 -175Q188 -187 185 -190T172 -194Q170 -194 161 -194T127 -193T65 -192Q-5 -192 -24 -194H-32Q-39 -187 -39 -183Q-37 -156 -26 -148H-6Q28 -147 33 -136Q36 -130 94 103T155 350Q156 355 156 364Q156 405 131 405Q109 405 94 377T71 316T59 280Q57 278 43 278H29Q23 284 23 287ZM178 102Q200 26 252 26Q282 26 310 49T356 107Q374 141 392 215T411 325V331Q411 405 350 405Q339 405 328 402T306 393T286 380T269 365T254 350T243 336T235 326L232 322Q232 321 229 308T218 264T204 212Q178 106 178 102Z"/><path id="MJX-859-TEX-I-1D456" d="M184 600Q184 624 203 642T247 661Q265 661 277 649T290 619Q290 596 270 577T226 557Q211 557 198 567T184 600ZM21 287Q21 295 30 318T54 369T98 420T158 442Q197 442 223 419T250 357Q250 340 236 301T196 196T154 83Q149 61 149 51Q149 26 166 26Q175 26 185 29T208 43T235 78T260 137Q263 149 265 151T282 153Q302 153 302 143Q302 135 293 112T268 61T223 11T161 -11Q129 -11 102 10T74 74Q74 91 79 106T122 220Q160 321 166 341T173 380Q173 404 156 404H154Q124 404 99 371T61 287Q60 286 59 284T58 281T56 279T53 278T49 278T41 278H27Q21 284 21 287Z"/><path id="MJX-859-TEX-N-3D" d="M56 347Q56 360 70 367H707Q722 359 722 347Q722 336 708 328L390 327H72Q56 332 56 347ZM56 153Q56 168 72 173H708Q722 163 722 153Q722 140 707 133H70Q56 140 56 153Z"/><path id="MJX-859-TEX-I-1D464" d="M580 385Q580 406 599 424T641 443Q659 443 674 425T690 368Q690 339 671 253Q656 197 644 161T609 80T554 12T482 -11Q438 -11 404 5T355 48Q354 47 352 44Q311 -11 252 -11Q226 -11 202 -5T155 14T118 53T104 116Q104 170 138 262T173 379Q173 380 173 381Q173 390 173 393T169 400T158 404H154Q131 404 112 385T82 344T65 302T57 280Q55 278 41 278H27Q21 284 21 287Q21 293 29 315T52 366T96 418T161 441Q204 441 227 416T250 358Q250 340 217 250T184 111Q184 65 205 46T258 26Q301 26 334 87L339 96V119Q339 122 339 128T340 136T341 143T342 152T345 165T348 182T354 206T362 238T373 281Q402 395 406 404Q419 431 449 431Q468 431 475 421T483 402Q483 389 454 274T422 142Q420 131 420 107V100Q420 85 423 71T442 42T487 26Q558 26 600 148Q609 171 620 213T632 273Q632 306 619 325T593 357T580 385Z"/><path id="MJX-859-TEX-I-1D465" d="M52 289Q59 331 106 386T222 442Q257 442 286 424T329 379Q371 442 430 442Q467 442 494 420T522 361Q522 332 508 314T481 292T458 288Q439 288 427 299T415 328Q415 374 465 391Q454 404 425 404Q412 404 406 402Q368 386 350 336Q290 115 290 78Q290 50 306 38T341 26Q378 26 414 59T463 140Q466 150 469 151T485 153H489Q504 153 504 145Q504 144 502 134Q486 77 440 33T333 -11Q263 -11 227 52Q186 -10 133 -10H127Q78 -10 57 16T35 71Q35 103 54 123T99 143Q142 143 142 101Q142 81 130 66T107 46T94 41L91 40Q91 39 97 36T113 29T132 26Q168 26 194 71Q203 87 217 139T245 247T261 313Q266 340 266 352Q266 380 251 392T217 404Q177 404 142 372T93 290Q91 281 88 280T72 278H58Q52 284 52 289Z"/></defs><g stroke="currentColor" fill="currentColor" stroke-width="0" transform="scale(1,-1)"><g data-mml-node="math"><g data-mml-node="msub"><g data-mml-node="mi"><use data-c="1D45D" xlink:href="#MJX-859-TEX-I-1D45D"/></g><g data-mml-node="mi" transform="translate(536,-150) scale(0.707)"><use data-c="1D456" xlink:href="#MJX-859-TEX-I-1D456"/></g></g><g data-mml-node="mo" transform="translate(1107.7,0)"><use data-c="3D" xlink:href="#MJX-859-TEX-N-3D"/></g><g data-mml-node="msub" transform="translate(2163.5,0)"><g data-mml-node="mi"><use data-c="1D464" xlink:href="#MJX-859-TEX-I-1D464"/></g><g data-mml-node="mi" transform="translate(749,-150) scale(0.707)"><use data-c="1D456" xlink:href="#MJX-859-TEX-I-1D456"/></g></g><g data-mml-node="msub" transform="translate(3206.5,0)"><g data-mml-node="mi"><use data-c="1D465" xlink:href="#MJX-859-TEX-I-1D465"/></g><g data-mml-node="mi" transform="translate(605,-150) scale(0.707)"><use data-c="1D456" xlink:href="#MJX-859-TEX-I-1D456"/></g></g></g></g></svg></mjx-container></div></div></div></foreignObject><text x="110" y="239" fill="#0066B3" font-family="Helvetica" font-size="14px" text-anchor="middle">\(p_i=w_i...</text></switch></g></g><switch><g requiredFeatures="http://www.w3.org/TR/SVG11/feature#Extensibility"/><a transform="translate(0,-5)" xlink:href="https://www.drawio.com/doc/faq/svg-export-text-problems" target="_blank"><text text-anchor="middle" font-size="10px" x="50%" y="100%">Text is not SVG - cannot display</text></a></switch></svg>